<svg width="206" height="206" viewBox="0 0 206 206" fill="none" xmlns="http://www.w3.org/2000/svg">
<g clip-path="url(#clip0_2148_2)">
<rect width="206" height="206" fill="#BABABA"/>
<rect x="0.5" y="0.5" width="41" height="41" stroke="black"/>
<path d="M8.77841 21.1364C8.77841 20.0625 8.91761 19.0753 9.19602 18.1747C9.47727 17.2713 9.87784 16.4403 10.3977 15.6818H11.2841C11.0795 15.9631 10.8878 16.3097 10.7088 16.7216C10.5327 17.1307 10.3778 17.581 10.2443 18.0724C10.1108 18.5611 10.0057 19.0668 9.92898 19.5895C9.85511 20.1122 9.81818 20.6278 9.81818 21.1364C9.81818 21.8125 9.88352 22.4986 10.0142 23.1946C10.1449 23.8906 10.321 24.5369 10.5426 25.1335C10.7642 25.7301 11.0114 26.2159 11.2841 26.5909H10.3977C9.87784 25.8324 9.47727 25.0028 9.19602 24.1023C8.91761 23.1989 8.77841 22.2102 8.77841 21.1364ZM15.5977 25.6193C14.9556 25.6193 14.4087 25.4446 13.957 25.0952C13.5053 24.7429 13.1602 24.233 12.9215 23.5653C12.6829 22.8949 12.5636 22.0852 12.5636 21.1364C12.5636 20.1932 12.6829 19.3878 12.9215 18.7202C13.163 18.0497 13.5096 17.5384 13.9613 17.1861C14.4158 16.831 14.9613 16.6534 15.5977 16.6534C16.234 16.6534 16.7781 16.831 17.2298 17.1861C17.6843 17.5384 18.0309 18.0497 18.2695 18.7202C18.511 19.3878 18.6317 20.1932 18.6317 21.1364C18.6317 22.0852 18.5124 22.8949 18.2738 23.5653C18.0352 24.233 17.69 24.7429 17.2383 25.0952C16.7866 25.4446 16.2397 25.6193 15.5977 25.6193ZM15.5977 24.6818C16.234 24.6818 16.7283 24.375 17.0806 23.7614C17.4329 23.1477 17.609 22.2727 17.609 21.1364C17.609 20.3807 17.5281 19.7372 17.3661 19.206C17.207 18.6747 16.9769 18.2699 16.6758 17.9915C16.3775 17.7131 16.0181 17.5739 15.5977 17.5739C14.967 17.5739 14.4741 17.8849 14.119 18.5071C13.7638 19.1264 13.5863 20.0028 13.5863 21.1364C13.5863 21.892 13.6658 22.5341 13.8249 23.0625C13.984 23.5909 14.2127 23.9929 14.511 24.2685C14.8121 24.544 15.1744 24.6818 15.5977 24.6818ZM21.4634 24.3068L21.3952 24.767C21.3469 25.0909 21.2731 25.4375 21.1737 25.8068C21.0771 26.1761 20.9762 26.5241 20.8711 26.8509C20.766 27.1776 20.6793 27.4375 20.6112 27.6307H19.8441C19.881 27.4489 19.9293 27.2088 19.989 26.9105C20.0487 26.6122 20.1083 26.2784 20.168 25.9091C20.2305 25.5426 20.2816 25.1676 20.3214 24.7841L20.3725 24.3068H21.4634ZM23.1051 23.7102V22.8409L26.9403 16.7727H27.571V18.1193H27.1449L24.2472 22.7045V22.7727H29.4119V23.7102H23.1051ZM27.2131 25.5V23.446V23.0412V16.7727H28.2188V25.5H27.2131ZM33.1737 21.1364C33.1737 22.2102 33.033 23.1989 32.7518 24.1023C32.4734 25.0028 32.0742 25.8324 31.5543 26.5909H30.668C30.8725 26.3097 31.0629 25.9631 31.239 25.5511C31.418 25.142 31.5742 24.6932 31.7077 24.2045C31.8413 23.7131 31.945 23.206 32.0188 22.6832C32.0955 22.1577 32.1339 21.642 32.1339 21.1364C32.1339 20.4602 32.0685 19.7741 31.9379 19.0781C31.8072 18.3821 31.631 17.7358 31.4094 17.1392C31.1879 16.5426 30.9407 16.0568 30.668 15.6818H31.5543C32.0742 16.4403 32.4734 17.2713 32.7518 18.1747C33.033 19.0753 33.1737 20.0625 33.1737 21.1364Z" fill="black"/>
<rect x="41.5" y="0.5" width="41" height="41" stroke="black"/>
<path d="M50.7784 21.1364C50.7784 20.0625 50.9176 19.0753 51.196 18.1747C51.4773 17.2713 51.8778 16.4403 52.3977 15.6818H53.2841C53.0795 15.9631 52.8878 16.3097 52.7088 16.7216C52.5327 17.1307 52.3778 17.581 52.2443 18.0724C52.1108 18.5611 52.0057 19.0668 51.929 19.5895C51.8551 20.1122 51.8182 20.6278 51.8182 21.1364C51.8182 21.8125 51.8835 22.4986 52.0142 23.1946C52.1449 23.8906 52.321 24.5369 52.5426 25.1335C52.7642 25.7301 53.0114 26.2159 53.2841 26.5909H52.3977C51.8778 25.8324 51.4773 25.0028 51.196 24.1023C50.9176 23.1989 50.7784 22.2102 50.7784 21.1364ZM57.8192 16.7727V25.5H56.7624V17.8807H56.7113L54.5806 19.2955V18.2216L56.7624 16.7727H57.8192ZM61.3306 24.3068L61.2624 24.767C61.2141 25.0909 61.1403 25.4375 61.0408 25.8068C60.9442 26.1761 60.8434 26.5241 60.7383 26.8509C60.6332 27.1776 60.5465 27.4375 60.4783 27.6307H59.7113C59.7482 27.4489 59.7965 27.2088 59.8562 26.9105C59.9158 26.6122 59.9755 26.2784 60.0352 25.9091C60.0977 25.5426 60.1488 25.1676 60.1886 24.7841L60.2397 24.3068H61.3306ZM62.9723 23.7102V22.8409L66.8075 16.7727H67.4382V18.1193H67.0121L64.1143 22.7045V22.7727H69.2791V23.7102H62.9723ZM67.0803 25.5V23.446V23.0412V16.7727H68.0859V25.5H67.0803ZM73.0408 21.1364C73.0408 22.2102 72.9002 23.1989 72.619 24.1023C72.3406 25.0028 71.9414 25.8324 71.4215 26.5909H70.5352C70.7397 26.3097 70.93 25.9631 71.1062 25.5511C71.2852 25.142 71.4414 24.6932 71.5749 24.2045C71.7085 23.7131 71.8121 23.206 71.886 22.6832C71.9627 22.1577 72.0011 21.642 72.0011 21.1364C72.0011 20.4602 71.9357 19.7741 71.805 19.0781C71.6744 18.3821 71.4982 17.7358 71.2766 17.1392C71.055 16.5426 70.8079 16.0568 70.5352 15.6818H71.4215C71.9414 16.4403 72.3406 17.2713 72.619 18.1747C72.9002 19.0753 73.0408 20.0625 73.0408 21.1364Z" fill="black"/>
<rect x="82.5" y="0.5" width="41" height="41" stroke="black"/>
<path d="M90.2784 21.1364C90.2784 20.0625 90.4176 19.0753 90.696 18.1747C90.9773 17.2713 91.3778 16.4403 91.8977 15.6818H92.7841C92.5795 15.9631 92.3878 16.3097 92.2088 16.7216C92.0327 17.1307 91.8778 17.581 91.7443 18.0724C91.6108 18.5611 91.5057 19.0668 91.429 19.5895C91.3551 20.1122 91.3182 20.6278 91.3182 21.1364C91.3182 21.8125 91.3835 22.4986 91.5142 23.1946C91.6449 23.8906 91.821 24.5369 92.0426 25.1335C92.2642 25.7301 92.5114 26.2159 92.7841 26.5909H91.8977C91.3778 25.8324 90.9773 25.0028 90.696 24.1023C90.4176 23.1989 90.2784 22.2102 90.2784 21.1364ZM94.2511 25.5V24.733L97.1317 21.5795C97.4698 21.2102 97.7482 20.8892 97.967 20.6165C98.1857 20.3409 98.3477 20.0824 98.4528 19.8409C98.5607 19.5966 98.6147 19.3409 98.6147 19.0739C98.6147 18.767 98.5408 18.5014 98.3931 18.277C98.2482 18.0526 98.0494 17.8793 97.7965 17.7571C97.5437 17.6349 97.2596 17.5739 96.9442 17.5739C96.609 17.5739 96.3164 17.6435 96.0664 17.7827C95.8192 17.919 95.6275 18.1108 95.4911 18.358C95.3576 18.6051 95.2908 18.8949 95.2908 19.2273H94.2852C94.2852 18.7159 94.4031 18.267 94.6388 17.8807C94.8746 17.4943 95.1957 17.1932 95.6019 16.9773C96.011 16.7614 96.4698 16.6534 96.9783 16.6534C97.4897 16.6534 97.9428 16.7614 98.3377 16.9773C98.7326 17.1932 99.0423 17.4844 99.2667 17.8509C99.4911 18.2173 99.6033 18.625 99.6033 19.0739C99.6033 19.3949 99.5451 19.7088 99.4286 20.0156C99.315 20.3196 99.1161 20.6591 98.832 21.0341C98.5508 21.4062 98.1602 21.8608 97.6602 22.3977L95.6999 24.4943V24.5625H99.7567V25.5H94.2511ZM103.034 24.3068L102.966 24.767C102.917 25.0909 102.843 25.4375 102.744 25.8068C102.647 26.1761 102.547 26.5241 102.441 26.8509C102.336 27.1776 102.25 27.4375 102.181 27.6307H101.414C101.451 27.4489 101.5 27.2088 101.559 26.9105C101.619 26.6122 101.679 26.2784 101.738 25.9091C101.801 25.5426 101.852 25.1676 101.892 24.7841L101.943 24.3068H103.034ZM104.675 23.7102V22.8409L108.511 16.7727H109.141V18.1193H108.715L105.817 22.7045V22.7727H110.982V23.7102H104.675ZM108.783 25.5V23.446V23.0412V16.7727H109.789V25.5H108.783ZM114.744 21.1364C114.744 22.2102 114.603 23.1989 114.322 24.1023C114.044 25.0028 113.645 25.8324 113.125 26.5909H112.238C112.443 26.3097 112.633 25.9631 112.809 25.5511C112.988 25.142 113.145 24.6932 113.278 24.2045C113.412 23.7131 113.515 23.206 113.589 22.6832C113.666 22.1577 113.704 21.642 113.704 21.1364C113.704 20.4602 113.639 19.7741 113.508 19.0781C113.377 18.3821 113.201 17.7358 112.98 17.1392C112.758 16.5426 112.511 16.0568 112.238 15.6818H113.125C113.645 16.4403 114.044 17.2713 114.322 18.1747C114.603 19.0753 114.744 20.0625 114.744 21.1364Z" fill="black"/>
<rect x="123.5" y="0.5" width="41" height="41" stroke="black"/>
<path d="M131.278 21.1364C131.278 20.0625 131.418 19.0753 131.696 18.1747C131.977 17.2713 132.378 16.4403 132.898 15.6818H133.784C133.58 15.9631 133.388 16.3097 133.209 16.7216C133.033 17.1307 132.878 17.581 132.744 18.0724C132.611 18.5611 132.506 19.0668 132.429 19.5895C132.355 20.1122 132.318 20.6278 132.318 21.1364C132.318 21.8125 132.384 22.4986 132.514 23.1946C132.645 23.8906 132.821 24.5369 133.043 25.1335C133.264 25.7301 133.511 26.2159 133.784 26.5909H132.898C132.378 25.8324 131.977 25.0028 131.696 24.1023C131.418 23.1989 131.278 22.2102 131.278 21.1364ZM138.2 25.6193C137.637 25.6193 137.136 25.5227 136.696 25.3295C136.258 25.1364 135.91 24.8679 135.652 24.5241C135.396 24.1776 135.257 23.7756 135.234 23.3182H136.308C136.331 23.5994 136.427 23.8423 136.598 24.0469C136.768 24.2486 136.991 24.4048 137.267 24.5156C137.542 24.6264 137.848 24.6818 138.183 24.6818C138.558 24.6818 138.89 24.6165 139.18 24.4858C139.47 24.3551 139.697 24.1733 139.862 23.9403C140.027 23.7074 140.109 23.4375 140.109 23.1307C140.109 22.8097 140.029 22.527 139.87 22.2827C139.711 22.0355 139.478 21.8423 139.172 21.7031C138.865 21.5639 138.49 21.4943 138.047 21.4943H137.348V20.5568H138.047C138.393 20.5568 138.697 20.4943 138.958 20.3693C139.223 20.2443 139.429 20.0682 139.576 19.8409C139.727 19.6136 139.802 19.3466 139.802 19.0398C139.802 18.7443 139.737 18.4872 139.606 18.2685C139.475 18.0497 139.291 17.8793 139.052 17.7571C138.816 17.6349 138.538 17.5739 138.217 17.5739C137.916 17.5739 137.632 17.6293 137.365 17.7401C137.1 17.848 136.885 18.0057 136.717 18.2131C136.549 18.4176 136.458 18.6648 136.444 18.9545H135.422C135.439 18.4972 135.576 18.0966 135.835 17.7528C136.093 17.4062 136.431 17.1364 136.849 16.9432C137.27 16.75 137.731 16.6534 138.234 16.6534C138.774 16.6534 139.237 16.7628 139.623 16.9815C140.01 17.1974 140.306 17.483 140.514 17.8381C140.721 18.1932 140.825 18.5767 140.825 18.9886C140.825 19.4801 140.696 19.8991 140.437 20.2457C140.181 20.5923 139.833 20.8324 139.393 20.9659V21.0341C139.944 21.125 140.375 21.3594 140.684 21.7372C140.994 22.1122 141.149 22.5767 141.149 23.1307C141.149 23.6051 141.02 24.0312 140.761 24.4091C140.505 24.7841 140.156 25.0795 139.713 25.2955C139.27 25.5114 138.765 25.6193 138.2 25.6193ZM144.139 24.3068L144.071 24.767C144.023 25.0909 143.949 25.4375 143.849 25.8068C143.753 26.1761 143.652 26.5241 143.547 26.8509C143.442 27.1776 143.355 27.4375 143.287 27.6307H142.52C142.557 27.4489 142.605 27.2088 142.665 26.9105C142.724 26.6122 142.784 26.2784 142.844 25.9091C142.906 25.5426 142.957 25.1676 142.997 24.7841L143.048 24.3068H144.139ZM145.781 23.7102V22.8409L149.616 16.7727H150.247V18.1193H149.821L146.923 22.7045V22.7727H152.088V23.7102H145.781ZM149.889 25.5V23.446V23.0412V16.7727H150.895V25.5H149.889ZM155.849 21.1364C155.849 22.2102 155.709 23.1989 155.428 24.1023C155.149 25.0028 154.75 25.8324 154.23 26.5909H153.344C153.548 26.3097 153.739 25.9631 153.915 25.5511C154.094 25.142 154.25 24.6932 154.384 24.2045C154.517 23.7131 154.621 23.206 154.695 22.6832C154.771 22.1577 154.81 21.642 154.81 21.1364C154.81 20.4602 154.744 19.7741 154.614 19.0781C154.483 18.3821 154.307 17.7358 154.085 17.1392C153.864 16.5426 153.616 16.0568 153.344 15.6818H154.23C154.75 16.4403 155.149 17.2713 155.428 18.1747C155.709 19.0753 155.849 20.0625 155.849 21.1364Z" fill="black"/>
<rect x="164.5" y="0.5" width="41" height="41" stroke="black"/>
<path d="M172.278 21.1364C172.278 20.0625 172.418 19.0753 172.696 18.1747C172.977 17.2713 173.378 16.4403 173.898 15.6818H174.784C174.58 15.9631 174.388 16.3097 174.209 16.7216C174.033 17.1307 173.878 17.581 173.744 18.0724C173.611 18.5611 173.506 19.0668 173.429 19.5895C173.355 20.1122 173.318 20.6278 173.318 21.1364C173.318 21.8125 173.384 22.4986 173.514 23.1946C173.645 23.8906 173.821 24.5369 174.043 25.1335C174.264 25.7301 174.511 26.2159 174.784 26.5909H173.898C173.378 25.8324 172.977 25.0028 172.696 24.1023C172.418 23.1989 172.278 22.2102 172.278 21.1364ZM176.047 23.7102V22.8409L179.882 16.7727H180.512V18.1193H180.086L177.189 22.7045V22.7727H182.353V23.7102H176.047ZM180.154 25.5V23.446V23.0412V16.7727H181.16V25.5H180.154ZM185.057 24.3068L184.989 24.767C184.941 25.0909 184.867 25.4375 184.767 25.8068C184.671 26.1761 184.57 26.5241 184.465 26.8509C184.36 27.1776 184.273 27.4375 184.205 27.6307H183.438C183.475 27.4489 183.523 27.2088 183.583 26.9105C183.642 26.6122 183.702 26.2784 183.762 25.9091C183.824 25.5426 183.875 25.1676 183.915 24.7841L183.966 24.3068H185.057ZM186.699 23.7102V22.8409L190.534 16.7727H191.165V18.1193H190.739L187.841 22.7045V22.7727H193.006V23.7102H186.699ZM190.807 25.5V23.446V23.0412V16.7727H191.812V25.5H190.807ZM196.767 21.1364C196.767 22.2102 196.627 23.1989 196.346 24.1023C196.067 25.0028 195.668 25.8324 195.148 26.5909H194.262C194.466 26.3097 194.657 25.9631 194.833 25.5511C195.012 25.142 195.168 24.6932 195.301 24.2045C195.435 23.7131 195.539 23.206 195.613 22.6832C195.689 22.1577 195.728 21.642 195.728 21.1364C195.728 20.4602 195.662 19.7741 195.532 19.0781C195.401 18.3821 195.225 17.7358 195.003 17.1392C194.782 16.5426 194.534 16.0568 194.262 15.6818H195.148C195.668 16.4403 196.067 17.2713 196.346 18.1747C196.627 19.0753 196.767 20.0625 196.767 21.1364Z" fill="black"/>
<rect x="0.5" y="41.5" width="41" height="41" stroke="black"/>
<path d="M8.77841 62.1364C8.77841 61.0625 8.91761 60.0753 9.19602 59.1747C9.47727 58.2713 9.87784 57.4403 10.3977 56.6818H11.2841C11.0795 56.9631 10.8878 57.3097 10.7088 57.7216C10.5327 58.1307 10.3778 58.581 10.2443 59.0724C10.1108 59.5611 10.0057 60.0668 9.92898 60.5895C9.85511 61.1122 9.81818 61.6278 9.81818 62.1364C9.81818 62.8125 9.88352 63.4986 10.0142 64.1946C10.1449 64.8906 10.321 65.5369 10.5426 66.1335C10.7642 66.7301 11.0114 67.2159 11.2841 67.5909H10.3977C9.87784 66.8324 9.47727 66.0028 9.19602 65.1023C8.91761 64.1989 8.77841 63.2102 8.77841 62.1364ZM15.5977 66.6193C14.9556 66.6193 14.4087 66.4446 13.957 66.0952C13.5053 65.7429 13.1602 65.233 12.9215 64.5653C12.6829 63.8949 12.5636 63.0852 12.5636 62.1364C12.5636 61.1932 12.6829 60.3878 12.9215 59.7202C13.163 59.0497 13.5096 58.5384 13.9613 58.1861C14.4158 57.831 14.9613 57.6534 15.5977 57.6534C16.234 57.6534 16.7781 57.831 17.2298 58.1861C17.6843 58.5384 18.0309 59.0497 18.2695 59.7202C18.511 60.3878 18.6317 61.1932 18.6317 62.1364C18.6317 63.0852 18.5124 63.8949 18.2738 64.5653C18.0352 65.233 17.69 65.7429 17.2383 66.0952C16.7866 66.4446 16.2397 66.6193 15.5977 66.6193ZM15.5977 65.6818C16.234 65.6818 16.7283 65.375 17.0806 64.7614C17.4329 64.1477 17.609 63.2727 17.609 62.1364C17.609 61.3807 17.5281 60.7372 17.3661 60.206C17.207 59.6747 16.9769 59.2699 16.6758 58.9915C16.3775 58.7131 16.0181 58.5739 15.5977 58.5739C14.967 58.5739 14.4741 58.8849 14.119 59.5071C13.7638 60.1264 13.5863 61.0028 13.5863 62.1364C13.5863 62.892 13.6658 63.5341 13.8249 64.0625C13.984 64.5909 14.2127 64.9929 14.511 65.2685C14.8121 65.544 15.1744 65.6818 15.5977 65.6818ZM21.4634 65.3068L21.3952 65.767C21.3469 66.0909 21.2731 66.4375 21.1737 66.8068C21.0771 67.1761 20.9762 67.5241 20.8711 67.8509C20.766 68.1776 20.6793 68.4375 20.6112 68.6307H19.8441C19.881 68.4489 19.9293 68.2088 19.989 67.9105C20.0487 67.6122 20.1083 67.2784 20.168 66.9091C20.2305 66.5426 20.2816 66.1676 20.3214 65.7841L20.3725 65.3068H21.4634ZM25.9304 66.6193C25.3679 66.6193 24.8665 66.5227 24.4261 66.3295C23.9886 66.1364 23.6406 65.8679 23.3821 65.5241C23.1264 65.1776 22.9872 64.7756 22.9645 64.3182H24.0384C24.0611 64.5994 24.1577 64.8423 24.3281 65.0469C24.4986 65.2486 24.7216 65.4048 24.9972 65.5156C25.2727 65.6264 25.5781 65.6818 25.9134 65.6818C26.2884 65.6818 26.6207 65.6165 26.9105 65.4858C27.2003 65.3551 27.4276 65.1733 27.5923 64.9403C27.7571 64.7074 27.8395 64.4375 27.8395 64.1307C27.8395 63.8097 27.7599 63.527 27.6009 63.2827C27.4418 63.0355 27.2088 62.8423 26.902 62.7031C26.5952 62.5639 26.2202 62.4943 25.777 62.4943H25.0781V61.5568H25.777C26.1236 61.5568 26.4276 61.4943 26.6889 61.3693C26.9531 61.2443 27.1591 61.0682 27.3068 60.8409C27.4574 60.6136 27.5327 60.3466 27.5327 60.0398C27.5327 59.7443 27.4673 59.4872 27.3366 59.2685C27.206 59.0497 27.0213 58.8793 26.7827 58.7571C26.5469 58.6349 26.2685 58.5739 25.9474 58.5739C25.6463 58.5739 25.3622 58.6293 25.0952 58.7401C24.831 58.848 24.6151 59.0057 24.4474 59.2131C24.2798 59.4176 24.1889 59.6648 24.1747 59.9545H23.152C23.169 59.4972 23.3068 59.0966 23.5653 58.7528C23.8239 58.4062 24.1619 58.1364 24.5795 57.9432C25 57.75 25.4616 57.6534 25.9645 57.6534C26.5043 57.6534 26.9673 57.7628 27.3537 57.9815C27.7401 58.1974 28.0369 58.483 28.2443 58.8381C28.4517 59.1932 28.5554 59.5767 28.5554 59.9886C28.5554 60.4801 28.4261 60.8991 28.1676 61.2457C27.9119 61.5923 27.5639 61.8324 27.1236 61.9659V62.0341C27.6747 62.125 28.1051 62.3594 28.4148 62.7372C28.7244 63.1122 28.8793 63.5767 28.8793 64.1307C28.8793 64.6051 28.75 65.0312 28.4915 65.4091C28.2358 65.7841 27.8864 66.0795 27.4432 66.2955C27 66.5114 26.4957 66.6193 25.9304 66.6193ZM32.7869 62.1364C32.7869 63.2102 32.6463 64.1989 32.3651 65.1023C32.0866 66.0028 31.6875 66.8324 31.1676 67.5909H30.2812C30.4858 67.3097 30.6761 66.9631 30.8523 66.5511C31.0313 66.142 31.1875 65.6932 31.321 65.2045C31.4545 64.7131 31.5582 64.206 31.6321 63.6832C31.7088 63.1577 31.7472 62.642 31.7472 62.1364C31.7472 61.4602 31.6818 60.7741 31.5511 60.0781C31.4205 59.3821 31.2443 58.7358 31.0227 58.1392C30.8011 57.5426 30.554 57.0568 30.2812 56.6818H31.1676C31.6875 57.4403 32.0866 58.2713 32.3651 59.1747C32.6463 60.0753 32.7869 61.0625 32.7869 62.1364Z" fill="black"/>
<rect x="41.5" y="41.5" width="41" height="41" stroke="black"/>
<path d="M50.7784 62.1364C50.7784 61.0625 50.9176 60.0753 51.196 59.1747C51.4773 58.2713 51.8778 57.4403 52.3977 56.6818H53.2841C53.0795 56.9631 52.8878 57.3097 52.7088 57.7216C52.5327 58.1307 52.3778 58.581 52.2443 59.0724C52.1108 59.5611 52.0057 60.0668 51.929 60.5895C51.8551 61.1122 51.8182 61.6278 51.8182 62.1364C51.8182 62.8125 51.8835 63.4986 52.0142 64.1946C52.1449 64.8906 52.321 65.5369 52.5426 66.1335C52.7642 66.7301 53.0114 67.2159 53.2841 67.5909H52.3977C51.8778 66.8324 51.4773 66.0028 51.196 65.1023C50.9176 64.1989 50.7784 63.2102 50.7784 62.1364ZM57.8192 57.7727V66.5H56.7624V58.8807H56.7113L54.5806 60.2955V59.2216L56.7624 57.7727H57.8192ZM61.3306 65.3068L61.2624 65.767C61.2141 66.0909 61.1403 66.4375 61.0408 66.8068C60.9442 67.1761 60.8434 67.5241 60.7383 67.8509C60.6332 68.1776 60.5465 68.4375 60.4783 68.6307H59.7113C59.7482 68.4489 59.7965 68.2088 59.8562 67.9105C59.9158 67.6122 59.9755 67.2784 60.0352 66.9091C60.0977 66.5426 60.1488 66.1676 60.1886 65.7841L60.2397 65.3068H61.3306ZM65.7976 66.6193C65.2351 66.6193 64.7337 66.5227 64.2933 66.3295C63.8558 66.1364 63.5078 65.8679 63.2493 65.5241C62.9936 65.1776 62.8544 64.7756 62.8317 64.3182H63.9055C63.9283 64.5994 64.0249 64.8423 64.1953 65.0469C64.3658 65.2486 64.5888 65.4048 64.8643 65.5156C65.1399 65.6264 65.4453 65.6818 65.7805 65.6818C66.1555 65.6818 66.4879 65.6165 66.7777 65.4858C67.0675 65.3551 67.2947 65.1733 67.4595 64.9403C67.6243 64.7074 67.7067 64.4375 67.7067 64.1307C67.7067 63.8097 67.6271 63.527 67.468 63.2827C67.3089 63.0355 67.076 62.8423 66.7692 62.7031C66.4624 62.5639 66.0874 62.4943 65.6442 62.4943H64.9453V61.5568H65.6442C65.9908 61.5568 66.2947 61.4943 66.5561 61.3693C66.8203 61.2443 67.0263 61.0682 67.174 60.8409C67.3246 60.6136 67.3999 60.3466 67.3999 60.0398C67.3999 59.7443 67.3345 59.4872 67.2038 59.2685C67.0732 59.0497 66.8885 58.8793 66.6499 58.7571C66.4141 58.6349 66.1357 58.5739 65.8146 58.5739C65.5135 58.5739 65.2294 58.6293 64.9624 58.7401C64.6982 58.848 64.4822 59.0057 64.3146 59.2131C64.147 59.4176 64.0561 59.6648 64.0419 59.9545H63.0192C63.0362 59.4972 63.174 59.0966 63.4325 58.7528C63.6911 58.4062 64.0291 58.1364 64.4467 57.9432C64.8672 57.75 65.3288 57.6534 65.8317 57.6534C66.3714 57.6534 66.8345 57.7628 67.2209 57.9815C67.6072 58.1974 67.9041 58.483 68.1115 58.8381C68.3189 59.1932 68.4226 59.5767 68.4226 59.9886C68.4226 60.4801 68.2933 60.8991 68.0348 61.2457C67.7791 61.5923 67.4311 61.8324 66.9908 61.9659V62.0341C67.5419 62.125 67.9723 62.3594 68.282 62.7372C68.5916 63.1122 68.7464 63.5767 68.7464 64.1307C68.7464 64.6051 68.6172 65.0312 68.3587 65.4091C68.103 65.7841 67.7536 66.0795 67.3104 66.2955C66.8672 66.5114 66.3629 66.6193 65.7976 66.6193ZM72.6541 62.1364C72.6541 63.2102 72.5135 64.1989 72.2322 65.1023C71.9538 66.0028 71.5547 66.8324 71.0348 67.5909H70.1484C70.353 67.3097 70.5433 66.9631 70.7195 66.5511C70.8984 66.142 71.0547 65.6932 71.1882 65.2045C71.3217 64.7131 71.4254 64.206 71.4993 63.6832C71.576 63.1577 71.6143 62.642 71.6143 62.1364C71.6143 61.4602 71.549 60.7741 71.4183 60.0781C71.2876 59.3821 71.1115 58.7358 70.8899 58.1392C70.6683 57.5426 70.4212 57.0568 70.1484 56.6818H71.0348C71.5547 57.4403 71.9538 58.2713 72.2322 59.1747C72.5135 60.0753 72.6541 61.0625 72.6541 62.1364Z" fill="black"/>
<rect x="82.5" y="41.5" width="41" height="41" stroke="black"/>
<path d="M90.7784 62.1364C90.7784 61.0625 90.9176 60.0753 91.196 59.1747C91.4773 58.2713 91.8778 57.4403 92.3977 56.6818H93.2841C93.0795 56.9631 92.8878 57.3097 92.7088 57.7216C92.5327 58.1307 92.3778 58.581 92.2443 59.0724C92.1108 59.5611 92.0057 60.0668 91.929 60.5895C91.8551 61.1122 91.8182 61.6278 91.8182 62.1364C91.8182 62.8125 91.8835 63.4986 92.0142 64.1946C92.1449 64.8906 92.321 65.5369 92.5426 66.1335C92.7642 66.7301 93.0114 67.2159 93.2841 67.5909H92.3977C91.8778 66.8324 91.4773 66.0028 91.196 65.1023C90.9176 64.1989 90.7784 63.2102 90.7784 62.1364ZM94.7511 66.5V65.733L97.6317 62.5795C97.9698 62.2102 98.2482 61.8892 98.467 61.6165C98.6857 61.3409 98.8477 61.0824 98.9528 60.8409C99.0607 60.5966 99.1147 60.3409 99.1147 60.0739C99.1147 59.767 99.0408 59.5014 98.8931 59.277C98.7482 59.0526 98.5494 58.8793 98.2965 58.7571C98.0437 58.6349 97.7596 58.5739 97.4442 58.5739C97.109 58.5739 96.8164 58.6435 96.5664 58.7827C96.3192 58.919 96.1275 59.1108 95.9911 59.358C95.8576 59.6051 95.7908 59.8949 95.7908 60.2273H94.7852C94.7852 59.7159 94.9031 59.267 95.1388 58.8807C95.3746 58.4943 95.6957 58.1932 96.1019 57.9773C96.511 57.7614 96.9698 57.6534 97.4783 57.6534C97.9897 57.6534 98.4428 57.7614 98.8377 57.9773C99.2326 58.1932 99.5423 58.4844 99.7667 58.8509C99.9911 59.2173 100.103 59.625 100.103 60.0739C100.103 60.3949 100.045 60.7088 99.9286 61.0156C99.815 61.3196 99.6161 61.6591 99.332 62.0341C99.0508 62.4062 98.6602 62.8608 98.1602 63.3977L96.1999 65.4943V65.5625H100.257V66.5H94.7511ZM103.534 65.3068L103.466 65.767C103.417 66.0909 103.343 66.4375 103.244 66.8068C103.147 67.1761 103.047 67.5241 102.941 67.8509C102.836 68.1776 102.75 68.4375 102.681 68.6307H101.914C101.951 68.4489 102 68.2088 102.059 67.9105C102.119 67.6122 102.179 67.2784 102.238 66.9091C102.301 66.5426 102.352 66.1676 102.392 65.7841L102.443 65.3068H103.534ZM108.001 66.6193C107.438 66.6193 106.937 66.5227 106.496 66.3295C106.059 66.1364 105.711 65.8679 105.452 65.5241C105.197 65.1776 105.058 64.7756 105.035 64.3182H106.109C106.131 64.5994 106.228 64.8423 106.398 65.0469C106.569 65.2486 106.792 65.4048 107.067 65.5156C107.343 65.6264 107.648 65.6818 107.984 65.6818C108.359 65.6818 108.691 65.6165 108.981 65.4858C109.271 65.3551 109.498 65.1733 109.663 64.9403C109.827 64.7074 109.91 64.4375 109.91 64.1307C109.91 63.8097 109.83 63.527 109.671 63.2827C109.512 63.0355 109.279 62.8423 108.972 62.7031C108.665 62.5639 108.29 62.4943 107.847 62.4943H107.148V61.5568H107.847C108.194 61.5568 108.498 61.4943 108.759 61.3693C109.023 61.2443 109.229 61.0682 109.377 60.8409C109.528 60.6136 109.603 60.3466 109.603 60.0398C109.603 59.7443 109.538 59.4872 109.407 59.2685C109.276 59.0497 109.092 58.8793 108.853 58.7571C108.617 58.6349 108.339 58.5739 108.018 58.5739C107.717 58.5739 107.433 58.6293 107.165 58.7401C106.901 58.848 106.685 59.0057 106.518 59.2131C106.35 59.4176 106.259 59.6648 106.245 59.9545H105.222C105.239 59.4972 105.377 59.0966 105.636 58.7528C105.894 58.4062 106.232 58.1364 106.65 57.9432C107.07 57.75 107.532 57.6534 108.035 57.6534C108.575 57.6534 109.038 57.7628 109.424 57.9815C109.81 58.1974 110.107 58.483 110.315 58.8381C110.522 59.1932 110.626 59.5767 110.626 59.9886C110.626 60.4801 110.496 60.8991 110.238 61.2457C109.982 61.5923 109.634 61.8324 109.194 61.9659V62.0341C109.745 62.125 110.175 62.3594 110.485 62.7372C110.795 63.1122 110.95 63.5767 110.95 64.1307C110.95 64.6051 110.82 65.0312 110.562 65.4091C110.306 65.7841 109.957 66.0795 109.513 66.2955C109.07 66.5114 108.566 66.6193 108.001 66.6193ZM114.857 62.1364C114.857 63.2102 114.717 64.1989 114.435 65.1023C114.157 66.0028 113.758 66.8324 113.238 67.5909H112.352C112.556 67.3097 112.746 66.9631 112.923 66.5511C113.102 66.142 113.258 65.6932 113.391 65.2045C113.525 64.7131 113.629 64.206 113.702 63.6832C113.779 63.1577 113.817 62.642 113.817 62.1364C113.817 61.4602 113.752 60.7741 113.621 60.0781C113.491 59.3821 113.315 58.7358 113.093 58.1392C112.871 57.5426 112.624 57.0568 112.352 56.6818H113.238C113.758 57.4403 114.157 58.2713 114.435 59.1747C114.717 60.0753 114.857 61.0625 114.857 62.1364Z" fill="black"/>
<rect x="123.5" y="41.5" width="41" height="41" stroke="black"/>
<path d="M131.778 62.1364C131.778 61.0625 131.918 60.0753 132.196 59.1747C132.477 58.2713 132.878 57.4403 133.398 56.6818H134.284C134.08 56.9631 133.888 57.3097 133.709 57.7216C133.533 58.1307 133.378 58.581 133.244 59.0724C133.111 59.5611 133.006 60.0668 132.929 60.5895C132.855 61.1122 132.818 61.6278 132.818 62.1364C132.818 62.8125 132.884 63.4986 133.014 64.1946C133.145 64.8906 133.321 65.5369 133.543 66.1335C133.764 66.7301 134.011 67.2159 134.284 67.5909H133.398C132.878 66.8324 132.477 66.0028 132.196 65.1023C131.918 64.1989 131.778 63.2102 131.778 62.1364ZM138.7 66.6193C138.137 66.6193 137.636 66.5227 137.196 66.3295C136.758 66.1364 136.41 65.8679 136.152 65.5241C135.896 65.1776 135.757 64.7756 135.734 64.3182H136.808C136.831 64.5994 136.927 64.8423 137.098 65.0469C137.268 65.2486 137.491 65.4048 137.767 65.5156C138.042 65.6264 138.348 65.6818 138.683 65.6818C139.058 65.6818 139.39 65.6165 139.68 65.4858C139.97 65.3551 140.197 65.1733 140.362 64.9403C140.527 64.7074 140.609 64.4375 140.609 64.1307C140.609 63.8097 140.529 63.527 140.37 63.2827C140.211 63.0355 139.978 62.8423 139.672 62.7031C139.365 62.5639 138.99 62.4943 138.547 62.4943H137.848V61.5568H138.547C138.893 61.5568 139.197 61.4943 139.458 61.3693C139.723 61.2443 139.929 61.0682 140.076 60.8409C140.227 60.6136 140.302 60.3466 140.302 60.0398C140.302 59.7443 140.237 59.4872 140.106 59.2685C139.975 59.0497 139.791 58.8793 139.552 58.7571C139.316 58.6349 139.038 58.5739 138.717 58.5739C138.416 58.5739 138.132 58.6293 137.865 58.7401C137.6 58.848 137.385 59.0057 137.217 59.2131C137.049 59.4176 136.958 59.6648 136.944 59.9545H135.922C135.939 59.4972 136.076 59.0966 136.335 58.7528C136.593 58.4062 136.931 58.1364 137.349 57.9432C137.77 57.75 138.231 57.6534 138.734 57.6534C139.274 57.6534 139.737 57.7628 140.123 57.9815C140.51 58.1974 140.806 58.483 141.014 58.8381C141.221 59.1932 141.325 59.5767 141.325 59.9886C141.325 60.4801 141.196 60.8991 140.937 61.2457C140.681 61.5923 140.333 61.8324 139.893 61.9659V62.0341C140.444 62.125 140.875 62.3594 141.184 62.7372C141.494 63.1122 141.649 63.5767 141.649 64.1307C141.649 64.6051 141.52 65.0312 141.261 65.4091C141.005 65.7841 140.656 66.0795 140.213 66.2955C139.77 66.5114 139.265 66.6193 138.7 66.6193ZM144.639 65.3068L144.571 65.767C144.523 66.0909 144.449 66.4375 144.349 66.8068C144.253 67.1761 144.152 67.5241 144.047 67.8509C143.942 68.1776 143.855 68.4375 143.787 68.6307H143.02C143.057 68.4489 143.105 68.2088 143.165 67.9105C143.224 67.6122 143.284 67.2784 143.344 66.9091C143.406 66.5426 143.457 66.1676 143.497 65.7841L143.548 65.3068H144.639ZM149.106 66.6193C148.544 66.6193 148.042 66.5227 147.602 66.3295C147.164 66.1364 146.816 65.8679 146.558 65.5241C146.302 65.1776 146.163 64.7756 146.14 64.3182H147.214C147.237 64.5994 147.333 64.8423 147.504 65.0469C147.674 65.2486 147.897 65.4048 148.173 65.5156C148.449 65.6264 148.754 65.6818 149.089 65.6818C149.464 65.6818 149.797 65.6165 150.086 65.4858C150.376 65.3551 150.603 65.1733 150.768 64.9403C150.933 64.7074 151.015 64.4375 151.015 64.1307C151.015 63.8097 150.936 63.527 150.777 63.2827C150.618 63.0355 150.385 62.8423 150.078 62.7031C149.771 62.5639 149.396 62.4943 148.953 62.4943H148.254V61.5568H148.953C149.299 61.5568 149.603 61.4943 149.865 61.3693C150.129 61.2443 150.335 61.0682 150.483 60.8409C150.633 60.6136 150.708 60.3466 150.708 60.0398C150.708 59.7443 150.643 59.4872 150.512 59.2685C150.382 59.0497 150.197 58.8793 149.958 58.7571C149.723 58.6349 149.444 58.5739 149.123 58.5739C148.822 58.5739 148.538 58.6293 148.271 58.7401C148.007 58.848 147.791 59.0057 147.623 59.2131C147.456 59.4176 147.365 59.6648 147.35 59.9545H146.328C146.345 59.4972 146.483 59.0966 146.741 58.7528C147 58.4062 147.338 58.1364 147.755 57.9432C148.176 57.75 148.637 57.6534 149.14 57.6534C149.68 57.6534 150.143 57.7628 150.529 57.9815C150.916 58.1974 151.213 58.483 151.42 58.8381C151.627 59.1932 151.731 59.5767 151.731 59.9886C151.731 60.4801 151.602 60.8991 151.343 61.2457C151.088 61.5923 150.74 61.8324 150.299 61.9659V62.0341C150.85 62.125 151.281 62.3594 151.591 62.7372C151.9 63.1122 152.055 63.5767 152.055 64.1307C152.055 64.6051 151.926 65.0312 151.667 65.4091C151.412 65.7841 151.062 66.0795 150.619 66.2955C150.176 66.5114 149.672 66.6193 149.106 66.6193ZM155.963 62.1364C155.963 63.2102 155.822 64.1989 155.541 65.1023C155.262 66.0028 154.863 66.8324 154.343 67.5909H153.457C153.662 67.3097 153.852 66.9631 154.028 66.5511C154.207 66.142 154.363 65.6932 154.497 65.2045C154.63 64.7131 154.734 64.206 154.808 63.6832C154.885 63.1577 154.923 62.642 154.923 62.1364C154.923 61.4602 154.858 60.7741 154.727 60.0781C154.596 59.3821 154.42 58.7358 154.199 58.1392C153.977 57.5426 153.73 57.0568 153.457 56.6818H154.343C154.863 57.4403 155.262 58.2713 155.541 59.1747C155.822 60.0753 155.963 61.0625 155.963 62.1364Z" fill="black"/>
<rect x="164.5" y="41.5" width="41" height="41" stroke="black"/>
<path d="M172.778 62.1364C172.778 61.0625 172.918 60.0753 173.196 59.1747C173.477 58.2713 173.878 57.4403 174.398 56.6818H175.284C175.08 56.9631 174.888 57.3097 174.709 57.7216C174.533 58.1307 174.378 58.581 174.244 59.0724C174.111 59.5611 174.006 60.0668 173.929 60.5895C173.855 61.1122 173.818 61.6278 173.818 62.1364C173.818 62.8125 173.884 63.4986 174.014 64.1946C174.145 64.8906 174.321 65.5369 174.543 66.1335C174.764 66.7301 175.011 67.2159 175.284 67.5909H174.398C173.878 66.8324 173.477 66.0028 173.196 65.1023C172.918 64.1989 172.778 63.2102 172.778 62.1364ZM176.547 64.7102V63.8409L180.382 57.7727H181.012V59.1193H180.586L177.689 63.7045V63.7727H182.853V64.7102H176.547ZM180.654 66.5V64.446V64.0412V57.7727H181.66V66.5H180.654ZM185.557 65.3068L185.489 65.767C185.441 66.0909 185.367 66.4375 185.267 66.8068C185.171 67.1761 185.07 67.5241 184.965 67.8509C184.86 68.1776 184.773 68.4375 184.705 68.6307H183.938C183.975 68.4489 184.023 68.2088 184.083 67.9105C184.142 67.6122 184.202 67.2784 184.262 66.9091C184.324 66.5426 184.375 66.1676 184.415 65.7841L184.466 65.3068H185.557ZM190.024 66.6193C189.462 66.6193 188.96 66.5227 188.52 66.3295C188.082 66.1364 187.734 65.8679 187.476 65.5241C187.22 65.1776 187.081 64.7756 187.058 64.3182H188.132C188.155 64.5994 188.251 64.8423 188.422 65.0469C188.592 65.2486 188.815 65.4048 189.091 65.5156C189.366 65.6264 189.672 65.6818 190.007 65.6818C190.382 65.6818 190.714 65.6165 191.004 65.4858C191.294 65.3551 191.521 65.1733 191.686 64.9403C191.851 64.7074 191.933 64.4375 191.933 64.1307C191.933 63.8097 191.854 63.527 191.695 63.2827C191.536 63.0355 191.303 62.8423 190.996 62.7031C190.689 62.5639 190.314 62.4943 189.871 62.4943H189.172V61.5568H189.871C190.217 61.5568 190.521 61.4943 190.783 61.3693C191.047 61.2443 191.253 61.0682 191.401 60.8409C191.551 60.6136 191.626 60.3466 191.626 60.0398C191.626 59.7443 191.561 59.4872 191.43 59.2685C191.3 59.0497 191.115 58.8793 190.876 58.7571C190.641 58.6349 190.362 58.5739 190.041 58.5739C189.74 58.5739 189.456 58.6293 189.189 58.7401C188.925 58.848 188.709 59.0057 188.541 59.2131C188.374 59.4176 188.283 59.6648 188.268 59.9545H187.246C187.263 59.4972 187.401 59.0966 187.659 58.7528C187.918 58.4062 188.256 58.1364 188.673 57.9432C189.094 57.75 189.555 57.6534 190.058 57.6534C190.598 57.6534 191.061 57.7628 191.447 57.9815C191.834 58.1974 192.131 58.483 192.338 58.8381C192.545 59.1932 192.649 59.5767 192.649 59.9886C192.649 60.4801 192.52 60.8991 192.261 61.2457C192.006 61.5923 191.658 61.8324 191.217 61.9659V62.0341C191.768 62.125 192.199 62.3594 192.509 62.7372C192.818 63.1122 192.973 63.5767 192.973 64.1307C192.973 64.6051 192.844 65.0312 192.585 65.4091C192.33 65.7841 191.98 66.0795 191.537 66.2955C191.094 66.5114 190.589 66.6193 190.024 66.6193ZM196.881 62.1364C196.881 63.2102 196.74 64.1989 196.459 65.1023C196.18 66.0028 195.781 66.8324 195.261 67.5909H194.375C194.58 67.3097 194.77 66.9631 194.946 66.5511C195.125 66.142 195.281 65.6932 195.415 65.2045C195.548 64.7131 195.652 64.206 195.726 63.6832C195.803 63.1577 195.841 62.642 195.841 62.1364C195.841 61.4602 195.776 60.7741 195.645 60.0781C195.514 59.3821 195.338 58.7358 195.116 58.1392C194.895 57.5426 194.648 57.0568 194.375 56.6818H195.261C195.781 57.4403 196.18 58.2713 196.459 59.1747C196.74 60.0753 196.881 61.0625 196.881 62.1364Z" fill="black"/>
<rect x="0.5" y="82.5" width="41" height="41" stroke="black"/>
<path d="M8.77841 103.136C8.77841 102.062 8.91761 101.075 9.19602 100.175C9.47727 99.2713 9.87784 98.4403 10.3977 97.6818H11.2841C11.0795 97.9631 10.8878 98.3097 10.7088 98.7216C10.5327 99.1307 10.3778 99.581 10.2443 100.072C10.1108 100.561 10.0057 101.067 9.92898 101.589C9.85511 102.112 9.81818 102.628 9.81818 103.136C9.81818 103.812 9.88352 104.499 10.0142 105.195C10.1449 105.891 10.321 106.537 10.5426 107.134C10.7642 107.73 11.0114 108.216 11.2841 108.591H10.3977C9.87784 107.832 9.47727 107.003 9.19602 106.102C8.91761 105.199 8.77841 104.21 8.77841 103.136ZM15.5977 107.619C14.9556 107.619 14.4087 107.445 13.957 107.095C13.5053 106.743 13.1602 106.233 12.9215 105.565C12.6829 104.895 12.5636 104.085 12.5636 103.136C12.5636 102.193 12.6829 101.388 12.9215 100.72C13.163 100.05 13.5096 99.5384 13.9613 99.1861C14.4158 98.831 14.9613 98.6534 15.5977 98.6534C16.234 98.6534 16.7781 98.831 17.2298 99.1861C17.6843 99.5384 18.0309 100.05 18.2695 100.72C18.511 101.388 18.6317 102.193 18.6317 103.136C18.6317 104.085 18.5124 104.895 18.2738 105.565C18.0352 106.233 17.69 106.743 17.2383 107.095C16.7866 107.445 16.2397 107.619 15.5977 107.619ZM15.5977 106.682C16.234 106.682 16.7283 106.375 17.0806 105.761C17.4329 105.148 17.609 104.273 17.609 103.136C17.609 102.381 17.5281 101.737 17.3661 101.206C17.207 100.675 16.9769 100.27 16.6758 99.9915C16.3775 99.7131 16.0181 99.5739 15.5977 99.5739C14.967 99.5739 14.4741 99.8849 14.119 100.507C13.7638 101.126 13.5863 102.003 13.5863 103.136C13.5863 103.892 13.6658 104.534 13.8249 105.062C13.984 105.591 14.2127 105.993 14.511 106.268C14.8121 106.544 15.1744 106.682 15.5977 106.682ZM21.4634 106.307L21.3952 106.767C21.3469 107.091 21.2731 107.438 21.1737 107.807C21.0771 108.176 20.9762 108.524 20.8711 108.851C20.766 109.178 20.6793 109.438 20.6112 109.631H19.8441C19.881 109.449 19.9293 109.209 19.989 108.911C20.0487 108.612 20.1083 108.278 20.168 107.909C20.2305 107.543 20.2816 107.168 20.3214 106.784L20.3725 106.307H21.4634ZM23.3097 107.5V106.733L26.1903 103.58C26.5284 103.21 26.8068 102.889 27.0256 102.616C27.2443 102.341 27.4063 102.082 27.5114 101.841C27.6193 101.597 27.6733 101.341 27.6733 101.074C27.6733 100.767 27.5994 100.501 27.4517 100.277C27.3068 100.053 27.108 99.8793 26.8551 99.7571C26.6023 99.6349 26.3182 99.5739 26.0028 99.5739C25.6676 99.5739 25.375 99.6435 25.125 99.7827C24.8778 99.919 24.6861 100.111 24.5497 100.358C24.4162 100.605 24.3494 100.895 24.3494 101.227H23.3438C23.3438 100.716 23.4616 100.267 23.6974 99.8807C23.9332 99.4943 24.2543 99.1932 24.6605 98.9773C25.0696 98.7614 25.5284 98.6534 26.0369 98.6534C26.5483 98.6534 27.0014 98.7614 27.3963 98.9773C27.7912 99.1932 28.1009 99.4844 28.3253 99.8509C28.5497 100.217 28.6619 100.625 28.6619 101.074C28.6619 101.395 28.6037 101.709 28.4872 102.016C28.3736 102.32 28.1747 102.659 27.8906 103.034C27.6094 103.406 27.2188 103.861 26.7188 104.398L24.7585 106.494V106.562H28.8153V107.5H23.3097ZM32.7401 103.136C32.7401 104.21 32.5994 105.199 32.3182 106.102C32.0398 107.003 31.6406 107.832 31.1207 108.591H30.2344C30.4389 108.31 30.6293 107.963 30.8054 107.551C30.9844 107.142 31.1406 106.693 31.2741 106.205C31.4077 105.713 31.5114 105.206 31.5852 104.683C31.6619 104.158 31.7003 103.642 31.7003 103.136C31.7003 102.46 31.6349 101.774 31.5043 101.078C31.3736 100.382 31.1974 99.7358 30.9759 99.1392C30.7543 98.5426 30.5071 98.0568 30.2344 97.6818H31.1207C31.6406 98.4403 32.0398 99.2713 32.3182 100.175C32.5994 101.075 32.7401 102.062 32.7401 103.136Z" fill="black"/>
<rect x="41.5" y="82.5" width="41" height="41" stroke="black"/>
<path d="M50.7784 103.136C50.7784 102.062 50.9176 101.075 51.196 100.175C51.4773 99.2713 51.8778 98.4403 52.3977 97.6818H53.2841C53.0795 97.9631 52.8878 98.3097 52.7088 98.7216C52.5327 99.1307 52.3778 99.581 52.2443 100.072C52.1108 100.561 52.0057 101.067 51.929 101.589C51.8551 102.112 51.8182 102.628 51.8182 103.136C51.8182 103.812 51.8835 104.499 52.0142 105.195C52.1449 105.891 52.321 106.537 52.5426 107.134C52.7642 107.73 53.0114 108.216 53.2841 108.591H52.3977C51.8778 107.832 51.4773 107.003 51.196 106.102C50.9176 105.199 50.7784 104.21 50.7784 103.136ZM57.8192 98.7727V107.5H56.7624V99.8807H56.7113L54.5806 101.295V100.222L56.7624 98.7727H57.8192ZM61.3306 106.307L61.2624 106.767C61.2141 107.091 61.1403 107.438 61.0408 107.807C60.9442 108.176 60.8434 108.524 60.7383 108.851C60.6332 109.178 60.5465 109.438 60.4783 109.631H59.7113C59.7482 109.449 59.7965 109.209 59.8562 108.911C59.9158 108.612 59.9755 108.278 60.0352 107.909C60.0977 107.543 60.1488 107.168 60.1886 106.784L60.2397 106.307H61.3306ZM63.1768 107.5V106.733L66.0575 103.58C66.3956 103.21 66.674 102.889 66.8928 102.616C67.1115 102.341 67.2734 102.082 67.3786 101.841C67.4865 101.597 67.5405 101.341 67.5405 101.074C67.5405 100.767 67.4666 100.501 67.3189 100.277C67.174 100.053 66.9751 99.8793 66.7223 99.7571C66.4695 99.6349 66.1854 99.5739 65.87 99.5739C65.5348 99.5739 65.2422 99.6435 64.9922 99.7827C64.745 99.919 64.5533 100.111 64.4169 100.358C64.2834 100.605 64.2166 100.895 64.2166 101.227H63.2109C63.2109 100.716 63.3288 100.267 63.5646 99.8807C63.8004 99.4943 64.1214 99.1932 64.5277 98.9773C64.9368 98.7614 65.3956 98.6534 65.9041 98.6534C66.4155 98.6534 66.8686 98.7614 67.2635 98.9773C67.6584 99.1932 67.968 99.4844 68.1925 99.8509C68.4169 100.217 68.5291 100.625 68.5291 101.074C68.5291 101.395 68.4709 101.709 68.3544 102.016C68.2408 102.32 68.0419 102.659 67.7578 103.034C67.4766 103.406 67.0859 103.861 66.5859 104.398L64.6257 106.494V106.562H68.6825V107.5H63.1768ZM72.6072 103.136C72.6072 104.21 72.4666 105.199 72.1854 106.102C71.907 107.003 71.5078 107.832 70.9879 108.591H70.1016C70.3061 108.31 70.4964 107.963 70.6726 107.551C70.8516 107.142 71.0078 106.693 71.1413 106.205C71.2749 105.713 71.3786 105.206 71.4524 104.683C71.5291 104.158 71.5675 103.642 71.5675 103.136C71.5675 102.46 71.5021 101.774 71.3714 101.078C71.2408 100.382 71.0646 99.7358 70.843 99.1392C70.6214 98.5426 70.3743 98.0568 70.1016 97.6818H70.9879C71.5078 98.4403 71.907 99.2713 72.1854 100.175C72.4666 101.075 72.6072 102.062 72.6072 103.136Z" fill="black"/>
<rect x="82.5" y="82.5" width="41" height="41" stroke="black"/>
<path d="M90.7784 103.136C90.7784 102.062 90.9176 101.075 91.196 100.175C91.4773 99.2713 91.8778 98.4403 92.3977 97.6818H93.2841C93.0795 97.9631 92.8878 98.3097 92.7088 98.7216C92.5327 99.1307 92.3778 99.581 92.2443 100.072C92.1108 100.561 92.0057 101.067 91.929 101.589C91.8551 102.112 91.8182 102.628 91.8182 103.136C91.8182 103.812 91.8835 104.499 92.0142 105.195C92.1449 105.891 92.321 106.537 92.5426 107.134C92.7642 107.73 93.0114 108.216 93.2841 108.591H92.3977C91.8778 107.832 91.4773 107.003 91.196 106.102C90.9176 105.199 90.7784 104.21 90.7784 103.136ZM94.7511 107.5V106.733L97.6317 103.58C97.9698 103.21 98.2482 102.889 98.467 102.616C98.6857 102.341 98.8477 102.082 98.9528 101.841C99.0607 101.597 99.1147 101.341 99.1147 101.074C99.1147 100.767 99.0408 100.501 98.8931 100.277C98.7482 100.053 98.5494 99.8793 98.2965 99.7571C98.0437 99.6349 97.7596 99.5739 97.4442 99.5739C97.109 99.5739 96.8164 99.6435 96.5664 99.7827C96.3192 99.919 96.1275 100.111 95.9911 100.358C95.8576 100.605 95.7908 100.895 95.7908 101.227H94.7852C94.7852 100.716 94.9031 100.267 95.1388 99.8807C95.3746 99.4943 95.6957 99.1932 96.1019 98.9773C96.511 98.7614 96.9698 98.6534 97.4783 98.6534C97.9897 98.6534 98.4428 98.7614 98.8377 98.9773C99.2326 99.1932 99.5423 99.4844 99.7667 99.8509C99.9911 100.217 100.103 100.625 100.103 101.074C100.103 101.395 100.045 101.709 99.9286 102.016C99.815 102.32 99.6161 102.659 99.332 103.034C99.0508 103.406 98.6602 103.861 98.1602 104.398L96.1999 106.494V106.562H100.257V107.5H94.7511ZM103.534 106.307L103.466 106.767C103.417 107.091 103.343 107.438 103.244 107.807C103.147 108.176 103.047 108.524 102.941 108.851C102.836 109.178 102.75 109.438 102.681 109.631H101.914C101.951 109.449 102 109.209 102.059 108.911C102.119 108.612 102.179 108.278 102.238 107.909C102.301 107.543 102.352 107.168 102.392 106.784L102.443 106.307H103.534ZM105.38 107.5V106.733L108.261 103.58C108.599 103.21 108.877 102.889 109.096 102.616C109.315 102.341 109.477 102.082 109.582 101.841C109.69 101.597 109.744 101.341 109.744 101.074C109.744 100.767 109.67 100.501 109.522 100.277C109.377 100.053 109.178 99.8793 108.925 99.7571C108.673 99.6349 108.388 99.5739 108.073 99.5739C107.738 99.5739 107.445 99.6435 107.195 99.7827C106.948 99.919 106.756 100.111 106.62 100.358C106.487 100.605 106.42 100.895 106.42 101.227H105.414C105.414 100.716 105.532 100.267 105.768 99.8807C106.004 99.4943 106.325 99.1932 106.731 98.9773C107.14 98.7614 107.599 98.6534 108.107 98.6534C108.619 98.6534 109.072 98.7614 109.467 98.9773C109.862 99.1932 110.171 99.4844 110.396 99.8509C110.62 100.217 110.732 100.625 110.732 101.074C110.732 101.395 110.674 101.709 110.558 102.016C110.444 102.32 110.245 102.659 109.961 103.034C109.68 103.406 109.289 103.861 108.789 104.398L106.829 106.494V106.562H110.886V107.5H105.38ZM114.81 103.136C114.81 104.21 114.67 105.199 114.388 106.102C114.11 107.003 113.711 107.832 113.191 108.591H112.305C112.509 108.31 112.7 107.963 112.876 107.551C113.055 107.142 113.211 106.693 113.344 106.205C113.478 105.713 113.582 105.206 113.656 104.683C113.732 104.158 113.771 103.642 113.771 103.136C113.771 102.46 113.705 101.774 113.575 101.078C113.444 100.382 113.268 99.7358 113.046 99.1392C112.825 98.5426 112.577 98.0568 112.305 97.6818H113.191C113.711 98.4403 114.11 99.2713 114.388 100.175C114.67 101.075 114.81 102.062 114.81 103.136Z" fill="black"/>
<rect x="123.5" y="82.5" width="41" height="41" stroke="black"/>
<path d="M131.778 103.136C131.778 102.062 131.918 101.075 132.196 100.175C132.477 99.2713 132.878 98.4403 133.398 97.6818H134.284C134.08 97.9631 133.888 98.3097 133.709 98.7216C133.533 99.1307 133.378 99.581 133.244 100.072C133.111 100.561 133.006 101.067 132.929 101.589C132.855 102.112 132.818 102.628 132.818 103.136C132.818 103.812 132.884 104.499 133.014 105.195C133.145 105.891 133.321 106.537 133.543 107.134C133.764 107.73 134.011 108.216 134.284 108.591H133.398C132.878 107.832 132.477 107.003 132.196 106.102C131.918 105.199 131.778 104.21 131.778 103.136ZM138.7 107.619C138.137 107.619 137.636 107.523 137.196 107.33C136.758 107.136 136.41 106.868 136.152 106.524C135.896 106.178 135.757 105.776 135.734 105.318H136.808C136.831 105.599 136.927 105.842 137.098 106.047C137.268 106.249 137.491 106.405 137.767 106.516C138.042 106.626 138.348 106.682 138.683 106.682C139.058 106.682 139.39 106.616 139.68 106.486C139.97 106.355 140.197 106.173 140.362 105.94C140.527 105.707 140.609 105.438 140.609 105.131C140.609 104.81 140.529 104.527 140.37 104.283C140.211 104.036 139.978 103.842 139.672 103.703C139.365 103.564 138.99 103.494 138.547 103.494H137.848V102.557H138.547C138.893 102.557 139.197 102.494 139.458 102.369C139.723 102.244 139.929 102.068 140.076 101.841C140.227 101.614 140.302 101.347 140.302 101.04C140.302 100.744 140.237 100.487 140.106 100.268C139.975 100.05 139.791 99.8793 139.552 99.7571C139.316 99.6349 139.038 99.5739 138.717 99.5739C138.416 99.5739 138.132 99.6293 137.865 99.7401C137.6 99.848 137.385 100.006 137.217 100.213C137.049 100.418 136.958 100.665 136.944 100.955H135.922C135.939 100.497 136.076 100.097 136.335 99.7528C136.593 99.4062 136.931 99.1364 137.349 98.9432C137.77 98.75 138.231 98.6534 138.734 98.6534C139.274 98.6534 139.737 98.7628 140.123 98.9815C140.51 99.1974 140.806 99.483 141.014 99.8381C141.221 100.193 141.325 100.577 141.325 100.989C141.325 101.48 141.196 101.899 140.937 102.246C140.681 102.592 140.333 102.832 139.893 102.966V103.034C140.444 103.125 140.875 103.359 141.184 103.737C141.494 104.112 141.649 104.577 141.649 105.131C141.649 105.605 141.52 106.031 141.261 106.409C141.005 106.784 140.656 107.08 140.213 107.295C139.77 107.511 139.265 107.619 138.7 107.619ZM144.639 106.307L144.571 106.767C144.523 107.091 144.449 107.438 144.349 107.807C144.253 108.176 144.152 108.524 144.047 108.851C143.942 109.178 143.855 109.438 143.787 109.631H143.02C143.057 109.449 143.105 109.209 143.165 108.911C143.224 108.612 143.284 108.278 143.344 107.909C143.406 107.543 143.457 107.168 143.497 106.784L143.548 106.307H144.639ZM146.485 107.5V106.733L149.366 103.58C149.704 103.21 149.983 102.889 150.201 102.616C150.42 102.341 150.582 102.082 150.687 101.841C150.795 101.597 150.849 101.341 150.849 101.074C150.849 100.767 150.775 100.501 150.627 100.277C150.483 100.053 150.284 99.8793 150.031 99.7571C149.778 99.6349 149.494 99.5739 149.179 99.5739C148.843 99.5739 148.551 99.6435 148.301 99.7827C148.054 99.919 147.862 100.111 147.725 100.358C147.592 100.605 147.525 100.895 147.525 101.227H146.52C146.52 100.716 146.637 100.267 146.873 99.8807C147.109 99.4943 147.43 99.1932 147.836 98.9773C148.245 98.7614 148.704 98.6534 149.213 98.6534C149.724 98.6534 150.177 98.7614 150.572 98.9773C150.967 99.1932 151.277 99.4844 151.501 99.8509C151.725 100.217 151.838 100.625 151.838 101.074C151.838 101.395 151.779 101.709 151.663 102.016C151.549 102.32 151.35 102.659 151.066 103.034C150.785 103.406 150.395 103.861 149.895 104.398L147.934 106.494V106.562H151.991V107.5H146.485ZM155.916 103.136C155.916 104.21 155.775 105.199 155.494 106.102C155.216 107.003 154.816 107.832 154.297 108.591H153.41C153.615 108.31 153.805 107.963 153.981 107.551C154.16 107.142 154.316 106.693 154.45 106.205C154.583 105.713 154.687 105.206 154.761 104.683C154.838 104.158 154.876 103.642 154.876 103.136C154.876 102.46 154.811 101.774 154.68 101.078C154.549 100.382 154.373 99.7358 154.152 99.1392C153.93 98.5426 153.683 98.0568 153.41 97.6818H154.297C154.816 98.4403 155.216 99.2713 155.494 100.175C155.775 101.075 155.916 102.062 155.916 103.136Z" fill="black"/>
<rect x="164.5" y="82.5" width="41" height="41" stroke="black"/>
<path d="M172.778 103.136C172.778 102.062 172.918 101.075 173.196 100.175C173.477 99.2713 173.878 98.4403 174.398 97.6818H175.284C175.08 97.9631 174.888 98.3097 174.709 98.7216C174.533 99.1307 174.378 99.581 174.244 100.072C174.111 100.561 174.006 101.067 173.929 101.589C173.855 102.112 173.818 102.628 173.818 103.136C173.818 103.812 173.884 104.499 174.014 105.195C174.145 105.891 174.321 106.537 174.543 107.134C174.764 107.73 175.011 108.216 175.284 108.591H174.398C173.878 107.832 173.477 107.003 173.196 106.102C172.918 105.199 172.778 104.21 172.778 103.136ZM176.547 105.71V104.841L180.382 98.7727H181.012V100.119H180.586L177.689 104.705V104.773H182.853V105.71H176.547ZM180.654 107.5V105.446V105.041V98.7727H181.66V107.5H180.654ZM185.557 106.307L185.489 106.767C185.441 107.091 185.367 107.438 185.267 107.807C185.171 108.176 185.07 108.524 184.965 108.851C184.86 109.178 184.773 109.438 184.705 109.631H183.938C183.975 109.449 184.023 109.209 184.083 108.911C184.142 108.612 184.202 108.278 184.262 107.909C184.324 107.543 184.375 107.168 184.415 106.784L184.466 106.307H185.557ZM187.403 107.5V106.733L190.284 103.58C190.622 103.21 190.901 102.889 191.119 102.616C191.338 102.341 191.5 102.082 191.605 101.841C191.713 101.597 191.767 101.341 191.767 101.074C191.767 100.767 191.693 100.501 191.545 100.277C191.401 100.053 191.202 99.8793 190.949 99.7571C190.696 99.6349 190.412 99.5739 190.097 99.5739C189.761 99.5739 189.469 99.6435 189.219 99.7827C188.972 99.919 188.78 100.111 188.643 100.358C188.51 100.605 188.443 100.895 188.443 101.227H187.438C187.438 100.716 187.555 100.267 187.791 99.8807C188.027 99.4943 188.348 99.1932 188.754 98.9773C189.163 98.7614 189.622 98.6534 190.131 98.6534C190.642 98.6534 191.095 98.7614 191.49 98.9773C191.885 99.1932 192.195 99.4844 192.419 99.8509C192.643 100.217 192.756 100.625 192.756 101.074C192.756 101.395 192.697 101.709 192.581 102.016C192.467 102.32 192.268 102.659 191.984 103.034C191.703 103.406 191.312 103.861 190.812 104.398L188.852 106.494V106.562H192.909V107.5H187.403ZM196.834 103.136C196.834 104.21 196.693 105.199 196.412 106.102C196.134 107.003 195.734 107.832 195.214 108.591H194.328C194.533 108.31 194.723 107.963 194.899 107.551C195.078 107.142 195.234 106.693 195.368 106.205C195.501 105.713 195.605 105.206 195.679 104.683C195.756 104.158 195.794 103.642 195.794 103.136C195.794 102.46 195.729 101.774 195.598 101.078C195.467 100.382 195.291 99.7358 195.07 99.1392C194.848 98.5426 194.601 98.0568 194.328 97.6818H195.214C195.734 98.4403 196.134 99.2713 196.412 100.175C196.693 101.075 196.834 102.062 196.834 103.136Z" fill="black"/>
<rect x="0.5" y="123.5" width="41" height="41" stroke="black"/>
<path d="M10.2784 144.136C10.2784 143.062 10.4176 142.075 10.696 141.175C10.9773 140.271 11.3778 139.44 11.8977 138.682H12.7841C12.5795 138.963 12.3878 139.31 12.2088 139.722C12.0327 140.131 11.8778 140.581 11.7443 141.072C11.6108 141.561 11.5057 142.067 11.429 142.589C11.3551 143.112 11.3182 143.628 11.3182 144.136C11.3182 144.812 11.3835 145.499 11.5142 146.195C11.6449 146.891 11.821 147.537 12.0426 148.134C12.2642 148.73 12.5114 149.216 12.7841 149.591H11.8977C11.3778 148.832 10.9773 148.003 10.696 147.102C10.4176 146.199 10.2784 145.21 10.2784 144.136ZM17.0977 148.619C16.4556 148.619 15.9087 148.445 15.457 148.095C15.0053 147.743 14.6602 147.233 14.4215 146.565C14.1829 145.895 14.0636 145.085 14.0636 144.136C14.0636 143.193 14.1829 142.388 14.4215 141.72C14.663 141.05 15.0096 140.538 15.4613 140.186C15.9158 139.831 16.4613 139.653 17.0977 139.653C17.734 139.653 18.2781 139.831 18.7298 140.186C19.1843 140.538 19.5309 141.05 19.7695 141.72C20.011 142.388 20.1317 143.193 20.1317 144.136C20.1317 145.085 20.0124 145.895 19.7738 146.565C19.5352 147.233 19.19 147.743 18.7383 148.095C18.2866 148.445 17.7397 148.619 17.0977 148.619ZM17.0977 147.682C17.734 147.682 18.2283 147.375 18.5806 146.761C18.9329 146.148 19.109 145.273 19.109 144.136C19.109 143.381 19.0281 142.737 18.8661 142.206C18.707 141.675 18.4769 141.27 18.1758 140.991C17.8775 140.713 17.5181 140.574 17.0977 140.574C16.467 140.574 15.9741 140.885 15.619 141.507C15.2638 142.126 15.0863 143.003 15.0863 144.136C15.0863 144.892 15.1658 145.534 15.3249 146.062C15.484 146.591 15.7127 146.993 16.011 147.268C16.3121 147.544 16.6744 147.682 17.0977 147.682ZM22.9634 147.307L22.8952 147.767C22.8469 148.091 22.7731 148.438 22.6737 148.807C22.5771 149.176 22.4762 149.524 22.3711 149.851C22.266 150.178 22.1793 150.438 22.1112 150.631H21.3441C21.381 150.449 21.4293 150.209 21.489 149.911C21.5487 149.612 21.6083 149.278 21.668 148.909C21.7305 148.543 21.7816 148.168 21.8214 147.784L21.8725 147.307H22.9634ZM26.8349 139.773V148.5H25.7781V140.881H25.7269L23.5962 142.295V141.222L25.7781 139.773H26.8349ZM31.5096 144.136C31.5096 145.21 31.369 146.199 31.0877 147.102C30.8093 148.003 30.4102 148.832 29.8903 149.591H29.0039C29.2085 149.31 29.3988 148.963 29.5749 148.551C29.7539 148.142 29.9102 147.693 30.0437 147.205C30.1772 146.713 30.2809 146.206 30.3548 145.683C30.4315 145.158 30.4698 144.642 30.4698 144.136C30.4698 143.46 30.4045 142.774 30.2738 142.078C30.1431 141.382 29.967 140.736 29.7454 140.139C29.5238 139.543 29.2766 139.057 29.0039 138.682H29.8903C30.4102 139.44 30.8093 140.271 31.0877 141.175C31.369 142.075 31.5096 143.062 31.5096 144.136Z" fill="black"/>
<rect x="41.5" y="123.5" width="41" height="41" stroke="black"/>
<path d="M52.2784 144.136C52.2784 143.062 52.4176 142.075 52.696 141.175C52.9773 140.271 53.3778 139.44 53.8977 138.682H54.7841C54.5795 138.963 54.3878 139.31 54.2088 139.722C54.0327 140.131 53.8778 140.581 53.7443 141.072C53.6108 141.561 53.5057 142.067 53.429 142.589C53.3551 143.112 53.3182 143.628 53.3182 144.136C53.3182 144.812 53.3835 145.499 53.5142 146.195C53.6449 146.891 53.821 147.537 54.0426 148.134C54.2642 148.73 54.5114 149.216 54.7841 149.591H53.8977C53.3778 148.832 52.9773 148.003 52.696 147.102C52.4176 146.199 52.2784 145.21 52.2784 144.136ZM59.3192 139.773V148.5H58.2624V140.881H58.2113L56.0806 142.295V141.222L58.2624 139.773H59.3192ZM62.8306 147.307L62.7624 147.767C62.7141 148.091 62.6403 148.438 62.5408 148.807C62.4442 149.176 62.3434 149.524 62.2383 149.851C62.1332 150.178 62.0465 150.438 61.9783 150.631H61.2113C61.2482 150.449 61.2965 150.209 61.3562 149.911C61.4158 149.612 61.4755 149.278 61.5352 148.909C61.5977 148.543 61.6488 148.168 61.6886 147.784L61.7397 147.307H62.8306ZM66.7021 139.773V148.5H65.6452V140.881H65.5941L63.4634 142.295V141.222L65.6452 139.773H66.7021ZM71.3768 144.136C71.3768 145.21 71.2362 146.199 70.9549 147.102C70.6765 148.003 70.2773 148.832 69.7575 149.591H68.8711C69.0756 149.31 69.266 148.963 69.4421 148.551C69.6211 148.142 69.7773 147.693 69.9109 147.205C70.0444 146.713 70.1481 146.206 70.2219 145.683C70.2987 145.158 70.337 144.642 70.337 144.136C70.337 143.46 70.2717 142.774 70.141 142.078C70.0103 141.382 69.8342 140.736 69.6126 140.139C69.391 139.543 69.1438 139.057 68.8711 138.682H69.7575C70.2773 139.44 70.6765 140.271 70.9549 141.175C71.2362 142.075 71.3768 143.062 71.3768 144.136Z" fill="black"/>
<rect x="82.5" y="123.5" width="41" height="41" stroke="black"/>
<path d="M92.2784 144.136C92.2784 143.062 92.4176 142.075 92.696 141.175C92.9773 140.271 93.3778 139.44 93.8977 138.682H94.7841C94.5795 138.963 94.3878 139.31 94.2088 139.722C94.0327 140.131 93.8778 140.581 93.7443 141.072C93.6108 141.561 93.5057 142.067 93.429 142.589C93.3551 143.112 93.3182 143.628 93.3182 144.136C93.3182 144.812 93.3835 145.499 93.5142 146.195C93.6449 146.891 93.821 147.537 94.0426 148.134C94.2642 148.73 94.5114 149.216 94.7841 149.591H93.8977C93.3778 148.832 92.9773 148.003 92.696 147.102C92.4176 146.199 92.2784 145.21 92.2784 144.136ZM96.2511 148.5V147.733L99.1317 144.58C99.4698 144.21 99.7482 143.889 99.967 143.616C100.186 143.341 100.348 143.082 100.453 142.841C100.561 142.597 100.615 142.341 100.615 142.074C100.615 141.767 100.541 141.501 100.393 141.277C100.248 141.053 100.049 140.879 99.7965 140.757C99.5437 140.635 99.2596 140.574 98.9442 140.574C98.609 140.574 98.3164 140.643 98.0664 140.783C97.8192 140.919 97.6275 141.111 97.4911 141.358C97.3576 141.605 97.2908 141.895 97.2908 142.227H96.2852C96.2852 141.716 96.4031 141.267 96.6388 140.881C96.8746 140.494 97.1957 140.193 97.6019 139.977C98.011 139.761 98.4698 139.653 98.9783 139.653C99.4897 139.653 99.9428 139.761 100.338 139.977C100.733 140.193 101.042 140.484 101.267 140.851C101.491 141.217 101.603 141.625 101.603 142.074C101.603 142.395 101.545 142.709 101.429 143.016C101.315 143.32 101.116 143.659 100.832 144.034C100.551 144.406 100.16 144.861 99.6602 145.398L97.6999 147.494V147.562H101.757V148.5H96.2511ZM105.034 147.307L104.966 147.767C104.917 148.091 104.843 148.438 104.744 148.807C104.647 149.176 104.547 149.524 104.441 149.851C104.336 150.178 104.25 150.438 104.181 150.631H103.414C103.451 150.449 103.5 150.209 103.559 149.911C103.619 149.612 103.679 149.278 103.738 148.909C103.801 148.543 103.852 148.168 103.892 147.784L103.943 147.307H105.034ZM108.905 139.773V148.5H107.848V140.881H107.797L105.667 142.295V141.222L107.848 139.773H108.905ZM113.58 144.136C113.58 145.21 113.439 146.199 113.158 147.102C112.88 148.003 112.48 148.832 111.961 149.591H111.074C111.279 149.31 111.469 148.963 111.645 148.551C111.824 148.142 111.98 147.693 112.114 147.205C112.248 146.713 112.351 146.206 112.425 145.683C112.502 145.158 112.54 144.642 112.54 144.136C112.54 143.46 112.475 142.774 112.344 142.078C112.213 141.382 112.037 140.736 111.816 140.139C111.594 139.543 111.347 139.057 111.074 138.682H111.961C112.48 139.44 112.88 140.271 113.158 141.175C113.439 142.075 113.58 143.062 113.58 144.136Z" fill="black"/>
<rect x="123.5" y="123.5" width="41" height="41" stroke="black"/>
<path d="M133.278 144.136C133.278 143.062 133.418 142.075 133.696 141.175C133.977 140.271 134.378 139.44 134.898 138.682H135.784C135.58 138.963 135.388 139.31 135.209 139.722C135.033 140.131 134.878 140.581 134.744 141.072C134.611 141.561 134.506 142.067 134.429 142.589C134.355 143.112 134.318 143.628 134.318 144.136C134.318 144.812 134.384 145.499 134.514 146.195C134.645 146.891 134.821 147.537 135.043 148.134C135.264 148.73 135.511 149.216 135.784 149.591H134.898C134.378 148.832 133.977 148.003 133.696 147.102C133.418 146.199 133.278 145.21 133.278 144.136ZM140.2 148.619C139.637 148.619 139.136 148.523 138.696 148.33C138.258 148.136 137.91 147.868 137.652 147.524C137.396 147.178 137.257 146.776 137.234 146.318H138.308C138.331 146.599 138.427 146.842 138.598 147.047C138.768 147.249 138.991 147.405 139.267 147.516C139.542 147.626 139.848 147.682 140.183 147.682C140.558 147.682 140.89 147.616 141.18 147.486C141.47 147.355 141.697 147.173 141.862 146.94C142.027 146.707 142.109 146.438 142.109 146.131C142.109 145.81 142.029 145.527 141.87 145.283C141.711 145.036 141.478 144.842 141.172 144.703C140.865 144.564 140.49 144.494 140.047 144.494H139.348V143.557H140.047C140.393 143.557 140.697 143.494 140.958 143.369C141.223 143.244 141.429 143.068 141.576 142.841C141.727 142.614 141.802 142.347 141.802 142.04C141.802 141.744 141.737 141.487 141.606 141.268C141.475 141.05 141.291 140.879 141.052 140.757C140.816 140.635 140.538 140.574 140.217 140.574C139.916 140.574 139.632 140.629 139.365 140.74C139.1 140.848 138.885 141.006 138.717 141.213C138.549 141.418 138.458 141.665 138.444 141.955H137.422C137.439 141.497 137.576 141.097 137.835 140.753C138.093 140.406 138.431 140.136 138.849 139.943C139.27 139.75 139.731 139.653 140.234 139.653C140.774 139.653 141.237 139.763 141.623 139.982C142.01 140.197 142.306 140.483 142.514 140.838C142.721 141.193 142.825 141.577 142.825 141.989C142.825 142.48 142.696 142.899 142.437 143.246C142.181 143.592 141.833 143.832 141.393 143.966V144.034C141.944 144.125 142.375 144.359 142.684 144.737C142.994 145.112 143.149 145.577 143.149 146.131C143.149 146.605 143.02 147.031 142.761 147.409C142.505 147.784 142.156 148.08 141.713 148.295C141.27 148.511 140.765 148.619 140.2 148.619ZM146.139 147.307L146.071 147.767C146.023 148.091 145.949 148.438 145.849 148.807C145.753 149.176 145.652 149.524 145.547 149.851C145.442 150.178 145.355 150.438 145.287 150.631H144.52C144.557 150.449 144.605 150.209 144.665 149.911C144.724 149.612 144.784 149.278 144.844 148.909C144.906 148.543 144.957 148.168 144.997 147.784L145.048 147.307H146.139ZM150.011 139.773V148.5H148.954V140.881H148.903L146.772 142.295V141.222L148.954 139.773H150.011ZM154.685 144.136C154.685 145.21 154.545 146.199 154.263 147.102C153.985 148.003 153.586 148.832 153.066 149.591H152.18C152.384 149.31 152.575 148.963 152.751 148.551C152.93 148.142 153.086 147.693 153.219 147.205C153.353 146.713 153.457 146.206 153.531 145.683C153.607 145.158 153.646 144.642 153.646 144.136C153.646 143.46 153.58 142.774 153.45 142.078C153.319 141.382 153.143 140.736 152.921 140.139C152.7 139.543 152.452 139.057 152.18 138.682H153.066C153.586 139.44 153.985 140.271 154.263 141.175C154.545 142.075 154.685 143.062 154.685 144.136Z" fill="black"/>
<rect x="164.5" y="123.5" width="41" height="41" stroke="black"/>
<path d="M174.278 144.136C174.278 143.062 174.418 142.075 174.696 141.175C174.977 140.271 175.378 139.44 175.898 138.682H176.784C176.58 138.963 176.388 139.31 176.209 139.722C176.033 140.131 175.878 140.581 175.744 141.072C175.611 141.561 175.506 142.067 175.429 142.589C175.355 143.112 175.318 143.628 175.318 144.136C175.318 144.812 175.384 145.499 175.514 146.195C175.645 146.891 175.821 147.537 176.043 148.134C176.264 148.73 176.511 149.216 176.784 149.591H175.898C175.378 148.832 174.977 148.003 174.696 147.102C174.418 146.199 174.278 145.21 174.278 144.136ZM178.047 146.71V145.841L181.882 139.773H182.512V141.119H182.086L179.189 145.705V145.773H184.353V146.71H178.047ZM182.154 148.5V146.446V146.041V139.773H183.16V148.5H182.154ZM187.057 147.307L186.989 147.767C186.941 148.091 186.867 148.438 186.767 148.807C186.671 149.176 186.57 149.524 186.465 149.851C186.36 150.178 186.273 150.438 186.205 150.631H185.438C185.475 150.449 185.523 150.209 185.583 149.911C185.642 149.612 185.702 149.278 185.762 148.909C185.824 148.543 185.875 148.168 185.915 147.784L185.966 147.307H187.057ZM190.929 139.773V148.5H189.872V140.881H189.821L187.69 142.295V141.222L189.872 139.773H190.929ZM195.603 144.136C195.603 145.21 195.463 146.199 195.181 147.102C194.903 148.003 194.504 148.832 193.984 149.591H193.098C193.302 149.31 193.493 148.963 193.669 148.551C193.848 148.142 194.004 147.693 194.137 147.205C194.271 146.713 194.375 146.206 194.449 145.683C194.525 145.158 194.564 144.642 194.564 144.136C194.564 143.46 194.498 142.774 194.368 142.078C194.237 141.382 194.061 140.736 193.839 140.139C193.618 139.543 193.37 139.057 193.098 138.682H193.984C194.504 139.44 194.903 140.271 195.181 141.175C195.463 142.075 195.603 143.062 195.603 144.136Z" fill="black"/>
<rect x="0.5" y="164.5" width="41" height="41" stroke="black"/>
<path d="M8.77841 185.136C8.77841 184.062 8.91761 183.075 9.19602 182.175C9.47727 181.271 9.87784 180.44 10.3977 179.682H11.2841C11.0795 179.963 10.8878 180.31 10.7088 180.722C10.5327 181.131 10.3778 181.581 10.2443 182.072C10.1108 182.561 10.0057 183.067 9.92898 183.589C9.85511 184.112 9.81818 184.628 9.81818 185.136C9.81818 185.812 9.88352 186.499 10.0142 187.195C10.1449 187.891 10.321 188.537 10.5426 189.134C10.7642 189.73 11.0114 190.216 11.2841 190.591H10.3977C9.87784 189.832 9.47727 189.003 9.19602 188.102C8.91761 187.199 8.77841 186.21 8.77841 185.136ZM15.5977 189.619C14.9556 189.619 14.4087 189.445 13.957 189.095C13.5053 188.743 13.1602 188.233 12.9215 187.565C12.6829 186.895 12.5636 186.085 12.5636 185.136C12.5636 184.193 12.6829 183.388 12.9215 182.72C13.163 182.05 13.5096 181.538 13.9613 181.186C14.4158 180.831 14.9613 180.653 15.5977 180.653C16.234 180.653 16.7781 180.831 17.2298 181.186C17.6843 181.538 18.0309 182.05 18.2695 182.72C18.511 183.388 18.6317 184.193 18.6317 185.136C18.6317 186.085 18.5124 186.895 18.2738 187.565C18.0352 188.233 17.69 188.743 17.2383 189.095C16.7866 189.445 16.2397 189.619 15.5977 189.619ZM15.5977 188.682C16.234 188.682 16.7283 188.375 17.0806 187.761C17.4329 187.148 17.609 186.273 17.609 185.136C17.609 184.381 17.5281 183.737 17.3661 183.206C17.207 182.675 16.9769 182.27 16.6758 181.991C16.3775 181.713 16.0181 181.574 15.5977 181.574C14.967 181.574 14.4741 181.885 14.119 182.507C13.7638 183.126 13.5863 184.003 13.5863 185.136C13.5863 185.892 13.6658 186.534 13.8249 187.062C13.984 187.591 14.2127 187.993 14.511 188.268C14.8121 188.544 15.1744 188.682 15.5977 188.682ZM21.4634 188.307L21.3952 188.767C21.3469 189.091 21.2731 189.438 21.1737 189.807C21.0771 190.176 20.9762 190.524 20.8711 190.851C20.766 191.178 20.6793 191.438 20.6112 191.631H19.8441C19.881 191.449 19.9293 191.209 19.989 190.911C20.0487 190.612 20.1083 190.278 20.168 189.909C20.2305 189.543 20.2816 189.168 20.3214 188.784L20.3725 188.307H21.4634ZM25.8516 189.619C25.2095 189.619 24.6626 189.445 24.2109 189.095C23.7592 188.743 23.4141 188.233 23.1754 187.565C22.9368 186.895 22.8175 186.085 22.8175 185.136C22.8175 184.193 22.9368 183.388 23.1754 182.72C23.4169 182.05 23.7635 181.538 24.2152 181.186C24.6697 180.831 25.2152 180.653 25.8516 180.653C26.4879 180.653 27.032 180.831 27.4837 181.186C27.9382 181.538 28.2848 182.05 28.5234 182.72C28.7649 183.388 28.8857 184.193 28.8857 185.136C28.8857 186.085 28.7663 186.895 28.5277 187.565C28.2891 188.233 27.9439 188.743 27.4922 189.095C27.0405 189.445 26.4936 189.619 25.8516 189.619ZM25.8516 188.682C26.4879 188.682 26.9822 188.375 27.3345 187.761C27.6868 187.148 27.8629 186.273 27.8629 185.136C27.8629 184.381 27.782 183.737 27.62 183.206C27.4609 182.675 27.2308 182.27 26.9297 181.991C26.6314 181.713 26.272 181.574 25.8516 181.574C25.2209 181.574 24.728 181.885 24.3729 182.507C24.0178 183.126 23.8402 184.003 23.8402 185.136C23.8402 185.892 23.9197 186.534 24.0788 187.062C24.2379 187.591 24.4666 187.993 24.7649 188.268C25.0661 188.544 25.4283 188.682 25.8516 188.682ZM32.6697 185.136C32.6697 186.21 32.5291 187.199 32.2479 188.102C31.9695 189.003 31.5703 189.832 31.0504 190.591H30.1641C30.3686 190.31 30.5589 189.963 30.7351 189.551C30.9141 189.142 31.0703 188.693 31.2038 188.205C31.3374 187.713 31.4411 187.206 31.5149 186.683C31.5916 186.158 31.63 185.642 31.63 185.136C31.63 184.46 31.5646 183.774 31.4339 183.078C31.3033 182.382 31.1271 181.736 30.9055 181.139C30.6839 180.543 30.4368 180.057 30.1641 179.682H31.0504C31.5703 180.44 31.9695 181.271 32.2479 182.175C32.5291 183.075 32.6697 184.062 32.6697 185.136Z" fill="black"/>
<rect x="41.5" y="164.5" width="41" height="41" stroke="black"/>
<path d="M50.7784 185.136C50.7784 184.062 50.9176 183.075 51.196 182.175C51.4773 181.271 51.8778 180.44 52.3977 179.682H53.2841C53.0795 179.963 52.8878 180.31 52.7088 180.722C52.5327 181.131 52.3778 181.581 52.2443 182.072C52.1108 182.561 52.0057 183.067 51.929 183.589C51.8551 184.112 51.8182 184.628 51.8182 185.136C51.8182 185.812 51.8835 186.499 52.0142 187.195C52.1449 187.891 52.321 188.537 52.5426 189.134C52.7642 189.73 53.0114 190.216 53.2841 190.591H52.3977C51.8778 189.832 51.4773 189.003 51.196 188.102C50.9176 187.199 50.7784 186.21 50.7784 185.136ZM57.8192 180.773V189.5H56.7624V181.881H56.7113L54.5806 183.295V182.222L56.7624 180.773H57.8192ZM61.3306 188.307L61.2624 188.767C61.2141 189.091 61.1403 189.438 61.0408 189.807C60.9442 190.176 60.8434 190.524 60.7383 190.851C60.6332 191.178 60.5465 191.438 60.4783 191.631H59.7113C59.7482 191.449 59.7965 191.209 59.8562 190.911C59.9158 190.612 59.9755 190.278 60.0352 189.909C60.0977 189.543 60.1488 189.168 60.1886 188.784L60.2397 188.307H61.3306ZM65.7188 189.619C65.0767 189.619 64.5298 189.445 64.0781 189.095C63.6264 188.743 63.2813 188.233 63.0426 187.565C62.804 186.895 62.6847 186.085 62.6847 185.136C62.6847 184.193 62.804 183.388 63.0426 182.72C63.2841 182.05 63.6307 181.538 64.0824 181.186C64.5369 180.831 65.0824 180.653 65.7188 180.653C66.3551 180.653 66.8991 180.831 67.3509 181.186C67.8054 181.538 68.152 182.05 68.3906 182.72C68.6321 183.388 68.7528 184.193 68.7528 185.136C68.7528 186.085 68.6335 186.895 68.3949 187.565C68.1562 188.233 67.8111 188.743 67.3594 189.095C66.9077 189.445 66.3608 189.619 65.7188 189.619ZM65.7188 188.682C66.3551 188.682 66.8494 188.375 67.2017 187.761C67.554 187.148 67.7301 186.273 67.7301 185.136C67.7301 184.381 67.6491 183.737 67.4872 183.206C67.3281 182.675 67.098 182.27 66.7969 181.991C66.4986 181.713 66.1392 181.574 65.7188 181.574C65.0881 181.574 64.5952 181.885 64.2401 182.507C63.8849 183.126 63.7074 184.003 63.7074 185.136C63.7074 185.892 63.7869 186.534 63.946 187.062C64.1051 187.591 64.3338 187.993 64.6321 188.268C64.9332 188.544 65.2955 188.682 65.7188 188.682ZM72.5369 185.136C72.5369 186.21 72.3963 187.199 72.1151 188.102C71.8366 189.003 71.4375 189.832 70.9176 190.591H70.0312C70.2358 190.31 70.4261 189.963 70.6023 189.551C70.7813 189.142 70.9375 188.693 71.071 188.205C71.2045 187.713 71.3082 187.206 71.3821 186.683C71.4588 186.158 71.4972 185.642 71.4972 185.136C71.4972 184.46 71.4318 183.774 71.3011 183.078C71.1705 182.382 70.9943 181.736 70.7727 181.139C70.5511 180.543 70.304 180.057 70.0312 179.682H70.9176C71.4375 180.44 71.8366 181.271 72.1151 182.175C72.3963 183.075 72.5369 184.062 72.5369 185.136Z" fill="black"/>
<rect x="82.5" y="164.5" width="41" height="41" stroke="black"/>
<path d="M90.7784 185.136C90.7784 184.062 90.9176 183.075 91.196 182.175C91.4773 181.271 91.8778 180.44 92.3977 179.682H93.2841C93.0795 179.963 92.8878 180.31 92.7088 180.722C92.5327 181.131 92.3778 181.581 92.2443 182.072C92.1108 182.561 92.0057 183.067 91.929 183.589C91.8551 184.112 91.8182 184.628 91.8182 185.136C91.8182 185.812 91.8835 186.499 92.0142 187.195C92.1449 187.891 92.321 188.537 92.5426 189.134C92.7642 189.73 93.0114 190.216 93.2841 190.591H92.3977C91.8778 189.832 91.4773 189.003 91.196 188.102C90.9176 187.199 90.7784 186.21 90.7784 185.136ZM94.7511 189.5V188.733L97.6317 185.58C97.9698 185.21 98.2482 184.889 98.467 184.616C98.6857 184.341 98.8477 184.082 98.9528 183.841C99.0607 183.597 99.1147 183.341 99.1147 183.074C99.1147 182.767 99.0408 182.501 98.8931 182.277C98.7482 182.053 98.5494 181.879 98.2965 181.757C98.0437 181.635 97.7596 181.574 97.4442 181.574C97.109 181.574 96.8164 181.643 96.5664 181.783C96.3192 181.919 96.1275 182.111 95.9911 182.358C95.8576 182.605 95.7908 182.895 95.7908 183.227H94.7852C94.7852 182.716 94.9031 182.267 95.1388 181.881C95.3746 181.494 95.6957 181.193 96.1019 180.977C96.511 180.761 96.9698 180.653 97.4783 180.653C97.9897 180.653 98.4428 180.761 98.8377 180.977C99.2326 181.193 99.5423 181.484 99.7667 181.851C99.9911 182.217 100.103 182.625 100.103 183.074C100.103 183.395 100.045 183.709 99.9286 184.016C99.815 184.32 99.6161 184.659 99.332 185.034C99.0508 185.406 98.6602 185.861 98.1602 186.398L96.1999 188.494V188.562H100.257V189.5H94.7511ZM103.534 188.307L103.466 188.767C103.417 189.091 103.343 189.438 103.244 189.807C103.147 190.176 103.047 190.524 102.941 190.851C102.836 191.178 102.75 191.438 102.681 191.631H101.914C101.951 191.449 102 191.209 102.059 190.911C102.119 190.612 102.179 190.278 102.238 189.909C102.301 189.543 102.352 189.168 102.392 188.784L102.443 188.307H103.534ZM107.922 189.619C107.28 189.619 106.733 189.445 106.281 189.095C105.83 188.743 105.484 188.233 105.246 187.565C105.007 186.895 104.888 186.085 104.888 185.136C104.888 184.193 105.007 183.388 105.246 182.72C105.487 182.05 105.834 181.538 106.286 181.186C106.74 180.831 107.286 180.653 107.922 180.653C108.558 180.653 109.102 180.831 109.554 181.186C110.009 181.538 110.355 182.05 110.594 182.72C110.835 183.388 110.956 184.193 110.956 185.136C110.956 186.085 110.837 186.895 110.598 187.565C110.359 188.233 110.014 188.743 109.562 189.095C109.111 189.445 108.564 189.619 107.922 189.619ZM107.922 188.682C108.558 188.682 109.053 188.375 109.405 187.761C109.757 187.148 109.933 186.273 109.933 185.136C109.933 184.381 109.852 183.737 109.69 183.206C109.531 182.675 109.301 182.27 109 181.991C108.702 181.713 108.342 181.574 107.922 181.574C107.291 181.574 106.798 181.885 106.443 182.507C106.088 183.126 105.911 184.003 105.911 185.136C105.911 185.892 105.99 186.534 106.149 187.062C106.308 187.591 106.537 187.993 106.835 188.268C107.136 188.544 107.499 188.682 107.922 188.682ZM114.74 185.136C114.74 186.21 114.599 187.199 114.318 188.102C114.04 189.003 113.641 189.832 113.121 190.591H112.234C112.439 190.31 112.629 189.963 112.805 189.551C112.984 189.142 113.141 188.693 113.274 188.205C113.408 187.713 113.511 187.206 113.585 186.683C113.662 186.158 113.7 185.642 113.7 185.136C113.7 184.46 113.635 183.774 113.504 183.078C113.374 182.382 113.197 181.736 112.976 181.139C112.754 180.543 112.507 180.057 112.234 179.682H113.121C113.641 180.44 114.04 181.271 114.318 182.175C114.599 183.075 114.74 184.062 114.74 185.136Z" fill="black"/>
<rect x="123.5" y="164.5" width="41" height="41" stroke="black"/>
<path d="M131.778 185.136C131.778 184.062 131.918 183.075 132.196 182.175C132.477 181.271 132.878 180.44 133.398 179.682H134.284C134.08 179.963 133.888 180.31 133.709 180.722C133.533 181.131 133.378 181.581 133.244 182.072C133.111 182.561 133.006 183.067 132.929 183.589C132.855 184.112 132.818 184.628 132.818 185.136C132.818 185.812 132.884 186.499 133.014 187.195C133.145 187.891 133.321 188.537 133.543 189.134C133.764 189.73 134.011 190.216 134.284 190.591H133.398C132.878 189.832 132.477 189.003 132.196 188.102C131.918 187.199 131.778 186.21 131.778 185.136ZM138.7 189.619C138.137 189.619 137.636 189.523 137.196 189.33C136.758 189.136 136.41 188.868 136.152 188.524C135.896 188.178 135.757 187.776 135.734 187.318H136.808C136.831 187.599 136.927 187.842 137.098 188.047C137.268 188.249 137.491 188.405 137.767 188.516C138.042 188.626 138.348 188.682 138.683 188.682C139.058 188.682 139.39 188.616 139.68 188.486C139.97 188.355 140.197 188.173 140.362 187.94C140.527 187.707 140.609 187.438 140.609 187.131C140.609 186.81 140.529 186.527 140.37 186.283C140.211 186.036 139.978 185.842 139.672 185.703C139.365 185.564 138.99 185.494 138.547 185.494H137.848V184.557H138.547C138.893 184.557 139.197 184.494 139.458 184.369C139.723 184.244 139.929 184.068 140.076 183.841C140.227 183.614 140.302 183.347 140.302 183.04C140.302 182.744 140.237 182.487 140.106 182.268C139.975 182.05 139.791 181.879 139.552 181.757C139.316 181.635 139.038 181.574 138.717 181.574C138.416 181.574 138.132 181.629 137.865 181.74C137.6 181.848 137.385 182.006 137.217 182.213C137.049 182.418 136.958 182.665 136.944 182.955H135.922C135.939 182.497 136.076 182.097 136.335 181.753C136.593 181.406 136.931 181.136 137.349 180.943C137.77 180.75 138.231 180.653 138.734 180.653C139.274 180.653 139.737 180.763 140.123 180.982C140.51 181.197 140.806 181.483 141.014 181.838C141.221 182.193 141.325 182.577 141.325 182.989C141.325 183.48 141.196 183.899 140.937 184.246C140.681 184.592 140.333 184.832 139.893 184.966V185.034C140.444 185.125 140.875 185.359 141.184 185.737C141.494 186.112 141.649 186.577 141.649 187.131C141.649 187.605 141.52 188.031 141.261 188.409C141.005 188.784 140.656 189.08 140.213 189.295C139.77 189.511 139.265 189.619 138.7 189.619ZM144.639 188.307L144.571 188.767C144.523 189.091 144.449 189.438 144.349 189.807C144.253 190.176 144.152 190.524 144.047 190.851C143.942 191.178 143.855 191.438 143.787 191.631H143.02C143.057 191.449 143.105 191.209 143.165 190.911C143.224 190.612 143.284 190.278 143.344 189.909C143.406 189.543 143.457 189.168 143.497 188.784L143.548 188.307H144.639ZM149.027 189.619C148.385 189.619 147.838 189.445 147.387 189.095C146.935 188.743 146.59 188.233 146.351 187.565C146.113 186.895 145.993 186.085 145.993 185.136C145.993 184.193 146.113 183.388 146.351 182.72C146.593 182.05 146.939 181.538 147.391 181.186C147.846 180.831 148.391 180.653 149.027 180.653C149.664 180.653 150.208 180.831 150.659 181.186C151.114 181.538 151.461 182.05 151.699 182.72C151.941 183.388 152.061 184.193 152.061 185.136C152.061 186.085 151.942 186.895 151.703 187.565C151.465 188.233 151.12 188.743 150.668 189.095C150.216 189.445 149.669 189.619 149.027 189.619ZM149.027 188.682C149.664 188.682 150.158 188.375 150.51 187.761C150.863 187.148 151.039 186.273 151.039 185.136C151.039 184.381 150.958 183.737 150.796 183.206C150.637 182.675 150.407 182.27 150.105 181.991C149.807 181.713 149.448 181.574 149.027 181.574C148.397 181.574 147.904 181.885 147.549 182.507C147.194 183.126 147.016 184.003 147.016 185.136C147.016 185.892 147.096 186.534 147.255 187.062C147.414 187.591 147.642 187.993 147.941 188.268C148.242 188.544 148.604 188.682 149.027 188.682ZM155.846 185.136C155.846 186.21 155.705 187.199 155.424 188.102C155.145 189.003 154.746 189.832 154.226 190.591H153.34C153.544 190.31 153.735 189.963 153.911 189.551C154.09 189.142 154.246 188.693 154.38 188.205C154.513 187.713 154.617 187.206 154.691 186.683C154.767 186.158 154.806 185.642 154.806 185.136C154.806 184.46 154.74 183.774 154.61 183.078C154.479 182.382 154.303 181.736 154.081 181.139C153.86 180.543 153.613 180.057 153.34 179.682H154.226C154.746 180.44 155.145 181.271 155.424 182.175C155.705 183.075 155.846 184.062 155.846 185.136Z" fill="black"/>
<rect x="164.5" y="164.5" width="41" height="41" stroke="black"/>
<path d="M172.778 185.136C172.778 184.062 172.918 183.075 173.196 182.175C173.477 181.271 173.878 180.44 174.398 179.682H175.284C175.08 179.963 174.888 180.31 174.709 180.722C174.533 181.131 174.378 181.581 174.244 182.072C174.111 182.561 174.006 183.067 173.929 183.589C173.855 184.112 173.818 184.628 173.818 185.136C173.818 185.812 173.884 186.499 174.014 187.195C174.145 187.891 174.321 188.537 174.543 189.134C174.764 189.73 175.011 190.216 175.284 190.591H174.398C173.878 189.832 173.477 189.003 173.196 188.102C172.918 187.199 172.778 186.21 172.778 185.136ZM176.547 187.71V186.841L180.382 180.773H181.012V182.119H180.586L177.689 186.705V186.773H182.853V187.71H176.547ZM180.654 189.5V187.446V187.041V180.773H181.66V189.5H180.654ZM185.557 188.307L185.489 188.767C185.441 189.091 185.367 189.438 185.267 189.807C185.171 190.176 185.07 190.524 184.965 190.851C184.86 191.178 184.773 191.438 184.705 191.631H183.938C183.975 191.449 184.023 191.209 184.083 190.911C184.142 190.612 184.202 190.278 184.262 189.909C184.324 189.543 184.375 189.168 184.415 188.784L184.466 188.307H185.557ZM189.945 189.619C189.303 189.619 188.756 189.445 188.305 189.095C187.853 188.743 187.508 188.233 187.269 187.565C187.031 186.895 186.911 186.085 186.911 185.136C186.911 184.193 187.031 183.388 187.269 182.72C187.511 182.05 187.857 181.538 188.309 181.186C188.763 180.831 189.309 180.653 189.945 180.653C190.582 180.653 191.126 180.831 191.577 181.186C192.032 181.538 192.379 182.05 192.617 182.72C192.859 183.388 192.979 184.193 192.979 185.136C192.979 186.085 192.86 186.895 192.621 187.565C192.383 188.233 192.038 188.743 191.586 189.095C191.134 189.445 190.587 189.619 189.945 189.619ZM189.945 188.682C190.582 188.682 191.076 188.375 191.428 187.761C191.781 187.148 191.957 186.273 191.957 185.136C191.957 184.381 191.876 183.737 191.714 183.206C191.555 182.675 191.325 182.27 191.023 181.991C190.725 181.713 190.366 181.574 189.945 181.574C189.315 181.574 188.822 181.885 188.467 182.507C188.112 183.126 187.934 184.003 187.934 185.136C187.934 185.892 188.013 186.534 188.173 187.062C188.332 187.591 188.56 187.993 188.859 188.268C189.16 188.544 189.522 188.682 189.945 188.682ZM196.763 185.136C196.763 186.21 196.623 187.199 196.342 188.102C196.063 189.003 195.664 189.832 195.144 190.591H194.258C194.462 190.31 194.653 189.963 194.829 189.551C195.008 189.142 195.164 188.693 195.298 188.205C195.431 187.713 195.535 187.206 195.609 186.683C195.685 186.158 195.724 185.642 195.724 185.136C195.724 184.46 195.658 183.774 195.528 183.078C195.397 182.382 195.221 181.736 194.999 181.139C194.778 180.543 194.531 180.057 194.258 179.682H195.144C195.664 180.44 196.063 181.271 196.342 182.175C196.623 183.075 196.763 184.062 196.763 185.136Z" fill="black"/>
</g>
<defs>
<clipPath id="clip0_2148_2">
<rect width="206" height="206" fill="white"/>
</clipPath>
</defs>
</svg>
